<svg xmlns="http://www.w3.org/2000/svg" width="644" height="1058" viewBox="0 0 644 1058">
  <g id="flow" transform="translate(-870 -192)">
    <path id="Path_413" data-name="Path 413" d="M0,1013V0" transform="translate(1192.5 214.5)" fill="none" stroke="rgba(0,0,0,0.13)" stroke-width="7"/>
    <g id="Path_412" data-name="Path 412" transform="translate(1170 192)" fill="#fff">
      <path d="M22.5,0A22.5,22.5,0,1,1,0,22.5,22.5,22.5,0,0,1,22.5,0Z" stroke="none"/>
      <path d="M 22.5 7 C 13.95326614379883 7 7 13.95326614379883 7 22.5 C 7 31.04673385620117 13.95326614379883 38 22.5 38 C 31.04673385620117 38 38 31.04673385620117 38 22.5 C 38 13.95326614379883 31.04673385620117 7 22.5 7 M 22.5 0 C 34.92639923095703 0 45 10.07358551025391 45 22.5 C 45 34.92639923095703 34.92639923095703 45 22.5 45 C 10.07358551025391 45 0 34.92639923095703 0 22.5 C 0 10.07358551025391 10.07358551025391 0 22.5 0 Z" stroke="none" fill="rgba(0,0,0,0.13)"/>
    </g>
    <g id="Path_411" data-name="Path 411" transform="translate(1170 1205)" fill="#fff">
      <path d="M22.5,0A22.5,22.5,0,1,1,0,22.5,22.5,22.5,0,0,1,22.5,0Z" stroke="none"/>
      <path d="M 22.5 7 C 13.95326614379883 7 7 13.95326614379883 7 22.5 C 7 31.04673385620117 13.95326614379883 38 22.5 38 C 31.04673385620117 38 38 31.04673385620117 38 22.5 C 38 13.95326614379883 31.04673385620117 7 22.5 7 M 22.5 0 C 34.92639923095703 0 45 10.07358551025391 45 22.5 C 45 34.92639923095703 34.92639923095703 45 22.5 45 C 10.07358551025391 45 0 34.92639923095703 0 22.5 C 0 10.07358551025391 10.07358551025391 0 22.5 0 Z" stroke="none" fill="rgba(0,0,0,0.13)"/>
    </g>
    <g id="Path_410" data-name="Path 410" transform="translate(1022 304)" fill="#fff">
      <path d="M15,0H325a15,15,0,0,1,15,15V47a15,15,0,0,1-15,15H15A15,15,0,0,1,0,47V15A15,15,0,0,1,15,0Z" stroke="none"/>
      <path d="M 15 3 C 11.794677734375 3 8.781219482421875 4.248226165771484 6.514739990234375 6.514728546142578 C 4.24822998046875 8.781227111816406 3 11.79468154907227 3 15 L 3 47 C 3 50.20531845092773 4.24822998046875 53.21877288818359 6.514739990234375 55.48527145385742 C 8.781219482421875 57.75177383422852 11.794677734375 59 15 59 L 325 59 C 328.205322265625 59 331.2187805175781 57.75177383422852 333.4852600097656 55.48527145385742 C 335.7517700195313 53.21877288818359 337 50.20531845092773 337 47 L 337 15 C 337 11.79468154907227 335.7517700195313 8.781227111816406 333.4852600097656 6.514728546142578 C 331.2187805175781 4.248226165771484 328.205322265625 3 325 3 L 15 3 M 15 0 L 325 0 C 333.2842712402344 0 340 6.715728759765625 340 15 L 340 47 C 340 55.28427124023438 333.2842712402344 62 325 62 L 15 62 C 6.715728759765625 62 0 55.28427124023438 0 47 L 0 15 C 0 6.715728759765625 6.715728759765625 0 15 0 Z" stroke="none" fill="rgba(0,0,0,0.13)"/>
    </g>
    <path id="Path_409" data-name="Path 409" d="M-129.234-9.94A9.918,9.918,0,0,0-119.266.42a10.056,10.056,0,0,0,5.208-1.428l2.408,2.66L-109.774,0-112.1-2.6a10.28,10.28,0,0,0,2.8-7.336,9.893,9.893,0,0,0-9.968-10.332A9.893,9.893,0,0,0-129.234-9.94Zm2.8,0c0-5.18,3.472-7.812,7.168-7.812S-112.1-15.12-112.1-9.94a8.249,8.249,0,0,1-1.764,5.376l-3.472-3.92-1.9,1.652,3.444,3.864a7.1,7.1,0,0,1-3.472.868C-122.962-2.1-126.434-4.76-126.434-9.94Zm29.512,8.316A11.923,11.923,0,0,0-96.81,0h2.52a22.659,22.659,0,0,1-.14-2.492V-13.468h-2.632v8.12c0,2.044-1.064,3.444-3.192,3.444-2.212,0-3.052-1.624-3.052-3.472v-8.092h-2.632v8.484c0,3.052,1.9,5.4,5.04,5.4A4.394,4.394,0,0,0-96.922-1.624Zm8.54-6.5a3.623,3.623,0,0,1,3.668-3.444,3.394,3.394,0,0,1,3.7,3.444Zm7.756,3.5A3.669,3.669,0,0,1-84.406-1.9a4,4,0,0,1-4.06-4.088H-78.33a5.916,5.916,0,0,0,.056-.84c0-4.2-2.324-7.056-6.468-7.056-3.388,0-6.44,2.884-6.44,7.112,0,4.564,3.164,7.2,6.776,7.2a6.1,6.1,0,0,0,6.048-4.256Zm13.188-8.988a4.953,4.953,0,0,0-.868-.084,4.217,4.217,0,0,0-4.032,2.576v-2.352h-2.576V0h2.632V-6.748c0-2.968,1.484-4.144,3.7-4.144a8.215,8.215,0,0,1,1.148.084Zm6.58,19.236,8.764-19.1h-2.828l-4.032,9.3-4.2-9.3h-3.024l5.8,11.984-3.36,7.112ZM-39.55,0V-8.344h8.456V-10.92H-39.55V-17.3h9.324v-2.548H-42.294V0Zm19.18-13.608a4.953,4.953,0,0,0-.868-.084,4.217,4.217,0,0,0-4.032,2.576v-2.352h-2.576V0h2.632V-6.748c0-2.968,1.484-4.144,3.7-4.144a8.215,8.215,0,0,1,1.148.084Zm8.428,11.676c-2.24,0-4.2-1.68-4.2-4.816,0-3.108,1.96-4.788,4.2-4.788s4.2,1.68,4.2,4.788C-7.742-3.612-9.7-1.932-11.942-1.932Zm0-11.956a6.791,6.791,0,0,0-6.888,7.14A6.8,6.8,0,0,0-11.942.42,6.8,6.8,0,0,0-5.054-6.748,6.791,6.791,0,0,0-11.942-13.888ZM.91,0V-8.12a3.124,3.124,0,0,1,3.136-3.416c2.016,0,2.856,1.344,2.856,3.08V0H9.534V-8.148a3.14,3.14,0,0,1,3.108-3.388c1.988,0,2.856,1.316,2.856,3.08V0h2.6V-8.736c0-3.528-2.3-5.124-4.648-5.124a4.834,4.834,0,0,0-4.508,2.548A4.207,4.207,0,0,0,4.914-13.86,4.644,4.644,0,0,0,.826-11.676v-1.792h-2.52V0ZM43.33,0H46.3L38.4-19.852H35.238L27.342,0h2.94l2.1-5.544h8.792ZM36.75-17l3.444,8.9H33.362ZM50.106-6.776c0-2.772,1.568-4.732,3.976-4.732s3.864,1.9,3.864,4.676S56.462-1.96,54.054-1.96C51.534-1.96,50.106-4,50.106-6.776ZM57.974-1.82A11.281,11.281,0,0,0,58.114,0h2.548a21.308,21.308,0,0,1-.14-2.492v-17.78h-2.6v8.708c-.448-1.092-1.736-2.268-4.116-2.268-3.808,0-6.384,3.248-6.384,7.056,0,4,2.436,7.14,6.384,7.14a4.509,4.509,0,0,0,4.172-2.408Zm12.8-.112c-2.24,0-4.2-1.68-4.2-4.816,0-3.108,1.96-4.788,4.2-4.788s4.2,1.68,4.2,4.788C74.97-3.612,73.01-1.932,70.77-1.932Zm0-11.956a6.791,6.791,0,0,0-6.888,7.14A6.8,6.8,0,0,0,70.77.42a6.8,6.8,0,0,0,6.888-7.168A6.791,6.791,0,0,0,70.77-13.888ZM83.622,5.32V-1.82A5.009,5.009,0,0,0,87.99.364c3.948,0,6.272-3.108,6.272-7.112,0-3.92-2.156-7.028-6.188-7.028a4.967,4.967,0,0,0-4.508,2.408v-2.1H81.018V5.32ZM91.574-6.748c0,2.772-1.54,4.76-3.976,4.76-2.408,0-4-1.988-4-4.76,0-2.688,1.6-4.7,4-4.7C90.062-11.452,91.574-9.436,91.574-6.748Zm9.436-10.976H98.6v2.184a1.884,1.884,0,0,1-2.072,2.072H95.8v2.38h2.576V-3.7A3.5,3.5,0,0,0,102.13.14a5.76,5.76,0,0,0,1.792-.252v-2.24a5.327,5.327,0,0,1-1.036.112c-1.372,0-1.876-.616-1.876-1.848v-7h2.912v-2.38H101.01Zm7.98,9.6a3.623,3.623,0,0,1,3.668-3.444,3.394,3.394,0,0,1,3.7,3.444Zm7.756,3.5a3.669,3.669,0,0,1-3.78,2.716,4,4,0,0,1-4.06-4.088h10.136a5.916,5.916,0,0,0,.056-.84c0-4.2-2.324-7.056-6.468-7.056-3.388,0-6.44,2.884-6.44,7.112,0,4.564,3.164,7.2,6.776,7.2a6.1,6.1,0,0,0,6.048-4.256Zm13.188-8.988a4.953,4.953,0,0,0-.868-.084,4.217,4.217,0,0,0-4.032,2.576v-2.352h-2.576V0h2.632V-6.748c0-2.968,1.484-4.144,3.7-4.144a8.215,8.215,0,0,1,1.148.084Z" transform="translate(1192 344)" fill="#707070"/>
    <g id="Path_408" data-name="Path 408" transform="translate(1017 433)" fill="#fff">
      <path d="M15,0H335a15,15,0,0,1,15,15V47a15,15,0,0,1-15,15H15A15,15,0,0,1,0,47V15A15,15,0,0,1,15,0Z" stroke="none"/>
      <path d="M 15 3 C 11.794677734375 3 8.781219482421875 4.248226165771484 6.514739990234375 6.514728546142578 C 4.24822998046875 8.781227111816406 3 11.79468154907227 3 15 L 3 47 C 3 50.20531845092773 4.24822998046875 53.21877288818359 6.514739990234375 55.48527145385742 C 8.781219482421875 57.75177383422852 11.794677734375 59 15 59 L 335 59 C 338.205322265625 59 341.2187805175781 57.75177383422852 343.4852600097656 55.48527145385742 C 345.7517700195313 53.21877288818359 347 50.20531845092773 347 47 L 347 15 C 347 11.79468154907227 345.7517700195313 8.781227111816406 343.4852600097656 6.514728546142578 C 341.2187805175781 4.248226165771484 338.205322265625 3 335 3 L 15 3 M 15 0 L 335 0 C 343.2842712402344 0 350 6.715728759765625 350 15 L 350 47 C 350 55.28427124023438 343.2842712402344 62 335 62 L 15 62 C 6.715728759765625 62 0 55.28427124023438 0 47 L 0 15 C 0 6.715728759765625 6.715728759765625 0 15 0 Z" stroke="none" fill="rgba(0,0,0,0.13)"/>
    </g>
    <path id="Path_407" data-name="Path 407" d="M-126.126-3.528l-5.992-16.324h-2.912L-127.554,0h2.716l7.644-19.852h-2.884ZM-112.07,0V-13.468h-2.6V0Zm-3.192-18.564a1.876,1.876,0,0,0,1.876,1.876,1.882,1.882,0,0,0,1.9-1.876,1.888,1.888,0,0,0-1.9-1.9A1.882,1.882,0,0,0-115.262-18.564ZM-108.85-3.5c.224,1.54,1.792,3.92,5.488,3.92,3.332,0,4.928-2.268,4.928-4.172,0-1.988-1.288-3.472-3.724-4l-2.184-.476c-1.036-.224-1.54-.812-1.54-1.624a2.031,2.031,0,0,1,2.24-1.792,2.613,2.613,0,0,1,2.8,2.24l2.324-.868c-.28-1.2-1.428-3.612-5.124-3.612a4.59,4.59,0,0,0-4.788,4.256,3.831,3.831,0,0,0,3.36,3.78l2.3.5c1.12.252,1.736.9,1.736,1.736,0,.952-.812,1.792-2.3,1.792a2.871,2.871,0,0,1-3.136-2.52ZM-92.33,0V-13.468h-2.6V0Zm-3.192-18.564a1.876,1.876,0,0,0,1.876,1.876,1.882,1.882,0,0,0,1.9-1.876,1.888,1.888,0,0,0-1.9-1.9A1.882,1.882,0,0,0-95.522-18.564Zm11.2.84H-86.73v2.184A1.884,1.884,0,0,1-88.8-13.468h-.728v2.38h2.576V-3.7A3.5,3.5,0,0,0-83.2.14,5.76,5.76,0,0,0-81.41-.112v-2.24a5.327,5.327,0,0,1-1.036.112c-1.372,0-1.876-.616-1.876-1.848v-7h2.912v-2.38h-2.912Zm27.468.42v-2.548H-72.87V-17.3h6.636V0h2.744V-17.3Zm5.152,9.38c.056-1.988,1.12-3.556,3.136-3.556,2.352,0,3.136,1.512,3.136,3.388V0H-42.8V-8.54c0-3-1.6-5.32-4.816-5.32A4.764,4.764,0,0,0-51.7-11.9v-8.372h-2.632V0H-51.7Zm14.812-.2a3.623,3.623,0,0,1,3.668-3.444,3.394,3.394,0,0,1,3.7,3.444Zm7.756,3.5A3.669,3.669,0,0,1-32.914-1.9a4,4,0,0,1-4.06-4.088h10.136a5.916,5.916,0,0,0,.056-.84c0-4.2-2.324-7.056-6.468-7.056-3.388,0-6.44,2.884-6.44,7.112,0,4.564,3.164,7.2,6.776,7.2a6.1,6.1,0,0,0,6.048-4.256ZM-13.4-2.436v-14.98h4.116c3.668,0,6.692,2.52,6.692,7.532,0,4.984-3.08,7.448-6.748,7.448ZM-9.254,0C-4.214,0,.238-3.388.238-9.884c0-6.524-4.4-9.968-9.436-9.968h-6.944V0ZM9.506-1.932c-2.24,0-4.2-1.68-4.2-4.816,0-3.108,1.96-4.788,4.2-4.788s4.2,1.68,4.2,4.788C13.706-3.612,11.746-1.932,9.506-1.932Zm0-11.956a6.791,6.791,0,0,0-6.888,7.14A6.8,6.8,0,0,0,9.506.42a6.8,6.8,0,0,0,6.888-7.168A6.791,6.791,0,0,0,9.506-13.888ZM18.774.728C19.11,3.612,21.63,5.74,24.99,5.74c5.068,0,6.748-3.332,6.748-6.748v-12.46h-2.6v1.876c-.672-1.344-2.072-2.128-4.144-2.128-3.7,0-6.188,2.912-6.188,6.552,0,3.808,2.6,6.524,6.188,6.524a4.485,4.485,0,0,0,4.116-2.212V-.924c0,2.912-1.288,4.368-4.116,4.368A3.581,3.581,0,0,1,21.322.14Zm6.608-3.584c-2.38,0-3.892-1.68-3.892-4.312,0-2.6,1.568-4.312,3.892-4.312,2.268,0,3.836,1.708,3.836,4.312S27.65-2.856,25.382-2.856Zm20.468-17H43.3L33.7,0h2.548Zm14.9,4.508c-.448-2.156-2.24-4.928-6.72-4.928-3.668,0-6.552,2.8-6.552,5.908,0,2.968,2.016,4.816,4.844,5.432l2.828.616c1.988.42,2.968,1.652,2.968,3.08,0,1.736-1.344,3.164-4.088,3.164a4.511,4.511,0,0,1-4.76-4.256l-2.632.84C47-2.66,49.266.42,54.054.42c4.228,0,6.86-2.8,6.86-5.88,0-2.772-1.848-4.844-5.152-5.572l-2.968-.644a2.875,2.875,0,0,1-2.548-2.884c0-1.848,1.6-3.3,3.836-3.3a4.027,4.027,0,0,1,4.2,3.388Zm6.16,7.42c.056-1.988,1.12-3.556,3.136-3.556,2.352,0,3.136,1.512,3.136,3.388V0H75.81V-8.54c0-3-1.6-5.32-4.816-5.32a4.764,4.764,0,0,0-4.088,1.96v-8.372H64.274V0h2.632Zm14.812-.2a3.623,3.623,0,0,1,3.668-3.444,3.394,3.394,0,0,1,3.7,3.444Zm7.756,3.5A3.669,3.669,0,0,1,85.694-1.9a4,4,0,0,1-4.06-4.088H91.77a5.916,5.916,0,0,0,.056-.84c0-4.2-2.324-7.056-6.468-7.056-3.388,0-6.44,2.884-6.44,7.112,0,4.564,3.164,7.2,6.776,7.2a6.1,6.1,0,0,0,6.048-4.256ZM97.818,0V-20.272H95.186V0Zm8.008-17.724h-2.408v2.184a1.884,1.884,0,0,1-2.072,2.072h-.728v2.38h2.576V-3.7A3.5,3.5,0,0,0,106.946.14a5.76,5.76,0,0,0,1.792-.252v-2.24a5.327,5.327,0,0,1-1.036.112c-1.372,0-1.876-.616-1.876-1.848v-7h2.912v-2.38h-2.912Zm7.98,9.6a3.623,3.623,0,0,1,3.668-3.444,3.394,3.394,0,0,1,3.7,3.444Zm7.756,3.5a3.669,3.669,0,0,1-3.78,2.716,4,4,0,0,1-4.06-4.088h10.136a5.916,5.916,0,0,0,.056-.84c0-4.2-2.324-7.056-6.468-7.056-3.388,0-6.44,2.884-6.44,7.112,0,4.564,3.164,7.2,6.776,7.2a6.1,6.1,0,0,0,6.048-4.256Zm13.188-8.988a4.953,4.953,0,0,0-.868-.084,4.217,4.217,0,0,0-4.032,2.576v-2.352h-2.576V0h2.632V-6.748c0-2.968,1.484-4.144,3.7-4.144a8.215,8.215,0,0,1,1.148.084Z" transform="translate(1192 473)" fill="#707070"/>
    <g id="Path_406" data-name="Path 406" transform="translate(1032 561)" fill="#fff">
      <path d="M15,0H305a15,15,0,0,1,15,15V47a15,15,0,0,1-15,15H15A15,15,0,0,1,0,47V15A15,15,0,0,1,15,0Z" stroke="none"/>
      <path d="M 15 3 C 11.794677734375 3 8.781219482421875 4.248207092285156 6.51470947265625 6.51470947265625 C 4.248199462890625 8.781208038330078 3 11.7946662902832 3 15 L 3 47 C 3 50.20529174804688 4.248199462890625 53.21879196166992 6.51470947265625 55.48529052734375 C 8.781219482421875 57.75179290771484 11.794677734375 59 15 59 L 305 59 C 308.2052917480469 59 311.21875 57.75179290771484 313.4852905273438 55.48529052734375 C 315.7518005371094 53.21875 317 50.20529174804688 317 47 L 317 15 C 317 11.7946662902832 315.7518005371094 8.781208038330078 313.4852905273438 6.51470947265625 C 311.2187805175781 4.248207092285156 308.2052917480469 3 305 3 L 15 3 M 15 0 L 305 0 C 313.2842407226563 0 320 6.715709686279297 320 15 L 320 47 C 320 55.28424835205078 313.2842407226563 62 305 62 L 15 62 C 6.7156982421875 62 0 55.28424835205078 0 47 L 0 15 C 0 6.715709686279297 6.7156982421875 0 15 0 Z" stroke="none" fill="rgba(0,0,0,0.13)"/>
    </g>
    <path id="Path_405" data-name="Path 405" d="M-104.048,0h2.968l-7.9-19.852h-3.164L-120.036,0h2.94l2.1-5.544h8.792Zm-6.58-17,3.444,8.9h-6.832ZM-96.1,5.32V-1.82A5.009,5.009,0,0,0-91.728.364c3.948,0,6.272-3.108,6.272-7.112,0-3.92-2.156-7.028-6.188-7.028a4.967,4.967,0,0,0-4.508,2.408v-2.1H-98.7V5.32Zm7.952-12.068c0,2.772-1.54,4.76-3.976,4.76-2.408,0-4-1.988-4-4.76,0-2.688,1.6-4.7,4-4.7C-89.656-11.452-88.144-9.436-88.144-6.748ZM-79.492,5.32V-1.82A5.009,5.009,0,0,0-75.124.364c3.948,0,6.272-3.108,6.272-7.112,0-3.92-2.156-7.028-6.188-7.028a4.967,4.967,0,0,0-4.508,2.408v-2.1H-82.1V5.32ZM-71.54-6.748c0,2.772-1.54,4.76-3.976,4.76-2.408,0-4-1.988-4-4.76,0-2.688,1.6-4.7,4-4.7C-73.052-11.452-71.54-9.436-71.54-6.748ZM-62.86,0V-20.272h-2.632V0Zm7.84,5.628,8.764-19.1h-2.828l-4.032,9.3-4.2-9.3H-60.34l5.8,11.984L-57.9,5.628Zm25.06-16.716v-2.38h-3.248V-15.6a2.019,2.019,0,0,1,2.128-2.3,3.039,3.039,0,0,1,1.148.168v-2.352a3.4,3.4,0,0,0-1.568-.28,4.271,4.271,0,0,0-4.424,4.62v2.268h-2.492v2.38h2.492V0h2.716V-11.088Zm8.036,9.156c-2.24,0-4.2-1.68-4.2-4.816,0-3.108,1.96-4.788,4.2-4.788s4.2,1.68,4.2,4.788C-17.724-3.612-19.684-1.932-21.924-1.932Zm0-11.956a6.791,6.791,0,0,0-6.888,7.14A6.8,6.8,0,0,0-21.924.42a6.8,6.8,0,0,0,6.888-7.168A6.791,6.791,0,0,0-21.924-13.888Zm17.724.28a4.953,4.953,0,0,0-.868-.084A4.217,4.217,0,0,0-9.1-11.116v-2.352h-2.576V0h2.632V-6.748c0-2.968,1.484-4.144,3.7-4.144a8.215,8.215,0,0,1,1.148.084ZM19.628,0H22.6L14.7-19.852H11.536L3.64,0H6.58l2.1-5.544h8.792Zm-6.58-17,3.444,8.9H9.66ZM26.4-6.776c0-2.772,1.568-4.732,3.976-4.732s3.864,1.9,3.864,4.676S32.76-1.96,30.352-1.96C27.832-1.96,26.4-4,26.4-6.776ZM34.272-1.82A11.281,11.281,0,0,0,34.412,0H36.96a21.308,21.308,0,0,1-.14-2.492v-17.78h-2.6v8.708c-.448-1.092-1.736-2.268-4.116-2.268-3.808,0-6.384,3.248-6.384,7.056,0,4,2.436,7.14,6.384,7.14a4.509,4.509,0,0,0,4.172-2.408Zm12.8-.112c-2.24,0-4.2-1.68-4.2-4.816,0-3.108,1.96-4.788,4.2-4.788s4.2,1.68,4.2,4.788C51.268-3.612,49.308-1.932,47.068-1.932Zm0-11.956a6.791,6.791,0,0,0-6.888,7.14A6.8,6.8,0,0,0,47.068.42a6.8,6.8,0,0,0,6.888-7.168A6.791,6.791,0,0,0,47.068-13.888ZM59.92,5.32V-1.82A5.009,5.009,0,0,0,64.288.364c3.948,0,6.272-3.108,6.272-7.112,0-3.92-2.156-7.028-6.188-7.028a4.967,4.967,0,0,0-4.508,2.408v-2.1H57.316V5.32ZM67.872-6.748c0,2.772-1.54,4.76-3.976,4.76-2.408,0-4-1.988-4-4.76,0-2.688,1.6-4.7,4-4.7C66.36-11.452,67.872-9.436,67.872-6.748Zm9.436-10.976H74.9v2.184a1.884,1.884,0,0,1-2.072,2.072H72.1v2.38h2.576V-3.7A3.5,3.5,0,0,0,78.428.14,5.76,5.76,0,0,0,80.22-.112v-2.24a5.327,5.327,0,0,1-1.036.112c-1.372,0-1.876-.616-1.876-1.848v-7H80.22v-2.38H77.308ZM86.324,0V-13.468h-2.6V0ZM83.132-18.564a1.876,1.876,0,0,0,1.876,1.876,1.882,1.882,0,0,0,1.9-1.876,1.888,1.888,0,0,0-1.9-1.9A1.882,1.882,0,0,0,83.132-18.564ZM96.572-1.932c-2.24,0-4.2-1.68-4.2-4.816,0-3.108,1.96-4.788,4.2-4.788s4.2,1.68,4.2,4.788C100.772-3.612,98.812-1.932,96.572-1.932Zm0-11.956a6.791,6.791,0,0,0-6.888,7.14A6.8,6.8,0,0,0,96.572.42a6.8,6.8,0,0,0,6.888-7.168A6.791,6.791,0,0,0,96.572-13.888Zm12.88,6.1c0-2.044,1.064-3.7,3.136-3.7,2.352,0,3.136,1.512,3.136,3.388V0h2.632V-8.54c0-3-1.6-5.32-4.816-5.32a4.613,4.613,0,0,0-4.144,2.324v-1.932H106.82V0h2.632Z" transform="translate(1192 598)" fill="#707070"/>
    <g id="Path_404" data-name="Path 404" transform="translate(1053 1076)" fill="#fff">
      <path d="M15,0H263a15,15,0,0,1,15,15V47a15,15,0,0,1-15,15H15A15,15,0,0,1,0,47V15A15,15,0,0,1,15,0Z" stroke="none"/>
      <path d="M 15 3 C 11.794677734375 3 8.781219482421875 4.24822998046875 6.514739990234375 6.514732360839844 C 4.24822998046875 8.781230926513672 3 11.79469299316406 3 15 L 3 47 C 3 50.20530700683594 4.24822998046875 53.21876907348633 6.514739990234375 55.48526763916016 C 8.781219482421875 57.75177001953125 11.794677734375 59 15 59 L 263 59 C 266.205322265625 59 269.2187805175781 57.75177001953125 271.4852600097656 55.48526763916016 C 273.7517700195313 53.21876907348633 275 50.20530700683594 275 47 L 275 15 C 275 11.79469299316406 273.7517700195313 8.781230926513672 271.4852600097656 6.514732360839844 C 269.2187805175781 4.24822998046875 266.205322265625 3 263 3 L 15 3 M 15 0 L 263 0 C 271.2842712402344 0 278 6.715732574462891 278 15 L 278 47 C 278 55.28427124023438 271.2842712402344 62 263 62 L 15 62 C 6.715728759765625 62 0 55.28427124023438 0 47 L 0 15 C 0 6.715732574462891 6.715728759765625 0 15 0 Z" stroke="none" fill="rgba(0,0,0,0.13)"/>
    </g>
    <path id="Path_403" data-name="Path 403" d="M-87.808.42a8.667,8.667,0,0,0,8.764-6.384l-2.436-.9A6.31,6.31,0,0,1-87.808-2.1c-3.612,0-7.056-2.66-7.056-7.84s3.444-7.812,7.056-7.812a5.88,5.88,0,0,1,6.188,4.676l2.548-.9c-1.008-3.836-4.2-6.3-8.736-6.3-4.928,0-9.856,3.7-9.856,10.332S-92.932.42-87.808.42Zm17.332-2.352c-2.24,0-4.2-1.68-4.2-4.816,0-3.108,1.96-4.788,4.2-4.788s4.2,1.68,4.2,4.788C-66.276-3.612-68.236-1.932-70.476-1.932Zm0-11.956a6.791,6.791,0,0,0-6.888,7.14A6.8,6.8,0,0,0-70.476.42a6.8,6.8,0,0,0,6.888-7.168A6.791,6.791,0,0,0-70.476-13.888ZM-57.6,0V-20.272h-2.632V0Zm7.112,0V-20.272h-2.632V0ZM-44.3-8.12a3.623,3.623,0,0,1,3.668-3.444,3.394,3.394,0,0,1,3.7,3.444Zm7.756,3.5A3.669,3.669,0,0,1-40.32-1.9a4,4,0,0,1-4.06-4.088h10.136a5.916,5.916,0,0,0,.056-.84c0-4.2-2.324-7.056-6.468-7.056-3.388,0-6.44,2.884-6.44,7.112,0,4.564,3.164,7.2,6.776,7.2a6.1,6.1,0,0,0,6.048-4.256Zm11.368-6.832A3.533,3.533,0,0,1-21.56-8.6L-19.18-9.6a5.858,5.858,0,0,0-5.992-4.284c-3.836,0-6.776,2.94-6.776,7.14A6.814,6.814,0,0,0-25.144.42a6.189,6.189,0,0,0,6.076-4.2l-2.324-1.008a3.661,3.661,0,0,1-3.752,2.772c-2.184,0-4.116-1.652-4.116-4.732C-29.26-9.884-27.3-11.452-25.172-11.452Zm12.712-6.272h-2.408v2.184a1.884,1.884,0,0,1-2.072,2.072h-.728v2.38h2.576V-3.7A3.5,3.5,0,0,0-11.34.14,5.761,5.761,0,0,0-9.548-.112v-2.24a5.327,5.327,0,0,1-1.036.112c-1.372,0-1.876-.616-1.876-1.848v-7h2.912v-2.38H-12.46Zm16.94,0H2.072v2.184A1.884,1.884,0,0,1,0-13.468H-.728v2.38H1.848V-3.7A3.5,3.5,0,0,0,5.6.14,5.761,5.761,0,0,0,7.392-.112v-2.24a5.327,5.327,0,0,1-1.036.112c-1.372,0-1.876-.616-1.876-1.848v-7H7.392v-2.38H4.48Zm9.044,9.8c.056-1.988,1.12-3.556,3.136-3.556,2.352,0,3.136,1.512,3.136,3.388V0h2.632V-8.54c0-3-1.6-5.32-4.816-5.32a4.764,4.764,0,0,0-4.088,1.96v-8.372H10.892V0h2.632Zm14.812-.2A3.623,3.623,0,0,1,32-11.564,3.394,3.394,0,0,1,35.7-8.12Zm7.756,3.5A3.669,3.669,0,0,1,32.312-1.9a4,4,0,0,1-4.06-4.088H38.388a5.916,5.916,0,0,0,.056-.84c0-4.2-2.324-7.056-6.468-7.056-3.388,0-6.44,2.884-6.44,7.112,0,4.564,3.164,7.2,6.776,7.2A6.1,6.1,0,0,0,38.36-3.836ZM51.828-2.436v-14.98h4.116c3.668,0,6.692,2.52,6.692,7.532,0,4.984-3.08,7.448-6.748,7.448ZM55.972,0c5.04,0,9.492-3.388,9.492-9.884,0-6.524-4.4-9.968-9.436-9.968H49.084V0Zm18.76-1.932c-2.24,0-4.2-1.68-4.2-4.816,0-3.108,1.96-4.788,4.2-4.788s4.2,1.68,4.2,4.788C78.932-3.612,76.972-1.932,74.732-1.932Zm0-11.956a6.791,6.791,0,0,0-6.888,7.14A6.8,6.8,0,0,0,74.732.42,6.8,6.8,0,0,0,81.62-6.748,6.791,6.791,0,0,0,74.732-13.888ZM84,.728c.336,2.884,2.856,5.012,6.216,5.012,5.068,0,6.748-3.332,6.748-6.748v-12.46h-2.6v1.876c-.672-1.344-2.072-2.128-4.144-2.128-3.7,0-6.188,2.912-6.188,6.552,0,3.808,2.6,6.524,6.188,6.524a4.485,4.485,0,0,0,4.116-2.212V-.924c0,2.912-1.288,4.368-4.116,4.368A3.581,3.581,0,0,1,86.548.14Zm6.608-3.584c-2.38,0-3.892-1.68-3.892-4.312,0-2.6,1.568-4.312,3.892-4.312,2.268,0,3.836,1.708,3.836,4.312S92.876-2.856,90.608-2.856Z" transform="translate(1192 1116)" fill="#707070"/>
    <g id="Path_402" data-name="Path 402" transform="translate(870 690)" fill="#fff">
      <path d="M15,0H629a15,15,0,0,1,15,15V47a15,15,0,0,1-15,15H15A15,15,0,0,1,0,47V15A15,15,0,0,1,15,0Z" stroke="none"/>
      <path d="M 15 3 C 11.794677734375 3 8.78118896484375 4.248249053955078 6.5146484375 6.514751434326172 C 4.24822998046875 8.78125 3 11.7946662902832 3 15 L 3 47 C 3 50.2053337097168 4.24822998046875 53.21875 6.5146484375 55.48524856567383 C 8.78118896484375 57.75175094604492 11.794677734375 59 15 59 L 629 59 C 632.205322265625 59 635.21875 57.75175094604492 637.4852294921875 55.48524856567383 C 639.7517700195313 53.21875 641 50.2053337097168 641 47 L 641 15 C 641 11.7946662902832 639.7517700195313 8.78125 637.4852294921875 6.514751434326172 C 635.21875 4.248249053955078 632.205322265625 3 629 3 L 15 3 M 15 0 L 629 0 C 637.2842407226563 0 644 6.715751647949219 644 15 L 644 47 C 644 55.28424835205078 637.2842407226563 62 629 62 L 15 62 C 6.71563720703125 62 0 55.28424835205078 0 47 L 0 15 C 0 6.715751647949219 6.71563720703125 0 15 0 Z" stroke="none" fill="rgba(0,0,0,0.13)"/>
    </g>
    <path id="Path_401" data-name="Path 401" d="M-269.3,0h3.192l-4.732-8.316a5.558,5.558,0,0,0,4.816-5.628,5.749,5.749,0,0,0-6.076-5.908h-7.476V0h2.772V-8.12h2.968Zm-7.5-10.584v-6.8h4.2c2.24,0,3.752,1.344,3.752,3.444,0,2.044-1.512,3.36-3.752,3.36ZM-261.38-8.12a3.623,3.623,0,0,1,3.668-3.444,3.394,3.394,0,0,1,3.7,3.444Zm7.756,3.5A3.669,3.669,0,0,1-257.4-1.9a4,4,0,0,1-4.06-4.088h10.136a5.916,5.916,0,0,0,.056-.84c0-4.2-2.324-7.056-6.468-7.056-3.388,0-6.44,2.884-6.44,7.112,0,4.564,3.164,7.2,6.776,7.2a6.1,6.1,0,0,0,6.048-4.256Zm17.78,9.94V-13.468h-2.548V-11.4A4.537,4.537,0,0,0-242.7-13.8c-3.948,0-6.328,3.22-6.328,7.028,0,3.92,2.52,7.14,6.384,7.14a4.5,4.5,0,0,0,4.2-2.268V5.32Zm-10.5-12.1c0-2.772,1.512-4.7,3.948-4.7,2.38,0,3.976,1.932,3.976,4.7s-1.6,4.816-3.976,4.816C-244.8-1.96-246.344-4-246.344-6.776Zm23.576,5.152A11.923,11.923,0,0,0-222.656,0h2.52a22.659,22.659,0,0,1-.14-2.492V-13.468h-2.632v8.12c0,2.044-1.064,3.444-3.192,3.444-2.212,0-3.052-1.624-3.052-3.472v-8.092h-2.632v8.484c0,3.052,1.9,5.4,5.04,5.4A4.394,4.394,0,0,0-222.768-1.624ZM-213.192,0V-13.468h-2.6V0Zm-3.192-18.564a1.876,1.876,0,0,0,1.876,1.876,1.882,1.882,0,0,0,1.9-1.876,1.888,1.888,0,0,0-1.9-1.9A1.882,1.882,0,0,0-216.384-18.564Zm15.148,4.956a4.953,4.953,0,0,0-.868-.084,4.217,4.217,0,0,0-4.032,2.576v-2.352h-2.576V0h2.632V-6.748c0-2.968,1.484-4.144,3.7-4.144a8.215,8.215,0,0,1,1.148.084Zm4.368,5.488a3.623,3.623,0,0,1,3.668-3.444,3.394,3.394,0,0,1,3.7,3.444Zm7.756,3.5a3.669,3.669,0,0,1-3.78,2.716,4,4,0,0,1-4.06-4.088h10.136a5.916,5.916,0,0,0,.056-.84c0-4.2-2.324-7.056-6.468-7.056-3.388,0-6.44,2.884-6.44,7.112,0,4.564,3.164,7.2,6.776,7.2a6.1,6.1,0,0,0,6.048-4.256ZM-180.8,0V-8.12a3.124,3.124,0,0,1,3.136-3.416c2.016,0,2.856,1.344,2.856,3.08V0h2.632V-8.148a3.14,3.14,0,0,1,3.108-3.388c1.988,0,2.856,1.316,2.856,3.08V0h2.6V-8.736c0-3.528-2.3-5.124-4.648-5.124a4.834,4.834,0,0,0-4.508,2.548,4.207,4.207,0,0,0-4.032-2.548,4.644,4.644,0,0,0-4.088,2.184v-1.792h-2.52V0Zm23.1-8.12a3.623,3.623,0,0,1,3.668-3.444,3.394,3.394,0,0,1,3.7,3.444Zm7.756,3.5A3.669,3.669,0,0,1-153.72-1.9a4,4,0,0,1-4.06-4.088h10.136a5.916,5.916,0,0,0,.056-.84c0-4.2-2.324-7.056-6.468-7.056-3.388,0-6.44,2.884-6.44,7.112,0,4.564,3.164,7.2,6.776,7.2a6.1,6.1,0,0,0,6.048-4.256Zm8.344-3.164c0-2.044,1.064-3.7,3.136-3.7,2.352,0,3.136,1.512,3.136,3.388V0h2.632V-8.54c0-3-1.6-5.32-4.816-5.32a4.613,4.613,0,0,0-4.144,2.324v-1.932h-2.576V0h2.632Zm16.632-9.94h-2.408v2.184a1.884,1.884,0,0,1-2.072,2.072h-.728v2.38h2.576V-3.7A3.5,3.5,0,0,0-123.844.14a5.76,5.76,0,0,0,1.792-.252v-2.24a5.327,5.327,0,0,1-1.036.112c-1.372,0-1.876-.616-1.876-1.848v-7h2.912v-2.38h-2.912Zm12.432,7.784A9.918,9.918,0,0,0-102.564.42a10.056,10.056,0,0,0,5.208-1.428l2.408,2.66L-93.072,0-95.4-2.6A10.28,10.28,0,0,0-92.6-9.94a9.893,9.893,0,0,0-9.968-10.332A9.893,9.893,0,0,0-112.532-9.94Zm2.8,0c0-5.18,3.472-7.812,7.168-7.812S-95.4-15.12-95.4-9.94A8.249,8.249,0,0,1-97.16-4.564l-3.472-3.92-1.9,1.652,3.444,3.864a7.1,7.1,0,0,1-3.472.868C-106.26-2.1-109.732-4.76-109.732-9.94ZM-80.22-1.624A11.923,11.923,0,0,0-80.108,0h2.52a22.659,22.659,0,0,1-.14-2.492V-13.468H-80.36v8.12c0,2.044-1.064,3.444-3.192,3.444-2.212,0-3.052-1.624-3.052-3.472v-8.092h-2.632v8.484c0,3.052,1.9,5.4,5.04,5.4A4.394,4.394,0,0,0-80.22-1.624Zm8.54-6.5a3.623,3.623,0,0,1,3.668-3.444,3.394,3.394,0,0,1,3.7,3.444Zm7.756,3.5A3.669,3.669,0,0,1-67.7-1.9a4,4,0,0,1-4.06-4.088h10.136a5.916,5.916,0,0,0,.056-.84c0-4.2-2.324-7.056-6.468-7.056-3.388,0-6.44,2.884-6.44,7.112,0,4.564,3.164,7.2,6.776,7.2a6.1,6.1,0,0,0,6.048-4.256Zm4.452,1.12C-59.248-1.96-57.68.42-53.984.42c3.332,0,4.928-2.268,4.928-4.172,0-1.988-1.288-3.472-3.724-4l-2.184-.476C-56-8.456-56.5-9.044-56.5-9.856a2.031,2.031,0,0,1,2.24-1.792,2.613,2.613,0,0,1,2.8,2.24l2.324-.868c-.28-1.2-1.428-3.612-5.124-3.612a4.59,4.59,0,0,0-4.788,4.256,3.831,3.831,0,0,0,3.36,3.78l2.3.5c1.12.252,1.736.9,1.736,1.736,0,.952-.812,1.792-2.3,1.792a2.871,2.871,0,0,1-3.136-2.52Zm17.444-14.224h-2.408v2.184a1.884,1.884,0,0,1-2.072,2.072h-.728v2.38h2.576V-3.7A3.5,3.5,0,0,0-40.908.14a5.761,5.761,0,0,0,1.792-.252v-2.24a5.327,5.327,0,0,1-1.036.112c-1.372,0-1.876-.616-1.876-1.848v-7h2.912v-2.38h-2.912ZM-33.012,0V-13.468h-2.6V0ZM-36.2-18.564a1.876,1.876,0,0,0,1.876,1.876,1.882,1.882,0,0,0,1.9-1.876,1.888,1.888,0,0,0-1.9-1.9A1.882,1.882,0,0,0-36.2-18.564Zm13.44,16.632c-2.24,0-4.2-1.68-4.2-4.816,0-3.108,1.96-4.788,4.2-4.788s4.2,1.68,4.2,4.788C-18.564-3.612-20.524-1.932-22.764-1.932Zm0-11.956a6.791,6.791,0,0,0-6.888,7.14A6.8,6.8,0,0,0-22.764.42a6.8,6.8,0,0,0,6.888-7.168A6.791,6.791,0,0,0-22.764-13.888Zm12.88,6.1c0-2.044,1.064-3.7,3.136-3.7,2.352,0,3.136,1.512,3.136,3.388V0H-.98V-8.54c0-3-1.6-5.32-4.816-5.32A4.613,4.613,0,0,0-9.94-11.536v-1.932h-2.576V0h2.632Zm15.736,0c0-2.044,1.064-3.7,3.136-3.7,2.352,0,3.136,1.512,3.136,3.388V0h2.632V-8.54c0-3-1.6-5.32-4.816-5.32A4.613,4.613,0,0,0,5.8-11.536v-1.932H3.22V0H5.852ZM18.116-3.612A4.2,4.2,0,0,0,22.624.42a4.91,4.91,0,0,0,4.34-2.24A9.853,9.853,0,0,0,27.1,0H29.68a12.669,12.669,0,0,1-.168-2.212V-8.96c0-2.632-1.568-4.928-5.6-4.928C21-13.888,18.676-12.1,18.4-9.52l2.52.588a2.858,2.858,0,0,1,3.052-2.716c2.044,0,2.912,1.092,2.912,2.408,0,.476-.224.9-1.036,1.008L22.2-7.7C19.88-7.364,18.116-6.02,18.116-3.612Zm4.872,1.82A2.042,2.042,0,0,1,20.8-3.752a2.014,2.014,0,0,1,1.96-2.016l4.116-.616v.616C26.88-2.828,25.144-1.792,22.988-1.792ZM36.2,0V-13.468H33.6V0ZM33.012-18.564a1.876,1.876,0,0,0,1.876,1.876,1.882,1.882,0,0,0,1.9-1.876,1.888,1.888,0,0,0-1.9-1.9A1.882,1.882,0,0,0,33.012-18.564ZM48.16-13.608a4.953,4.953,0,0,0-.868-.084,4.217,4.217,0,0,0-4.032,2.576v-2.352H40.684V0h2.632V-6.748c0-2.968,1.484-4.144,3.7-4.144a8.215,8.215,0,0,1,1.148.084ZM52.528-8.12A3.623,3.623,0,0,1,56.2-11.564a3.394,3.394,0,0,1,3.7,3.444Zm7.756,3.5A3.669,3.669,0,0,1,56.5-1.9a4,4,0,0,1-4.06-4.088H62.58a5.916,5.916,0,0,0,.056-.84c0-4.2-2.324-7.056-6.468-7.056-3.388,0-6.44,2.884-6.44,7.112,0,4.564,3.164,7.2,6.776,7.2a6.1,6.1,0,0,0,6.048-4.256Zm19.488-6.468v-2.38H76.524V-15.6a2.019,2.019,0,0,1,2.128-2.3,3.039,3.039,0,0,1,1.148.168v-2.352a3.4,3.4,0,0,0-1.568-.28,4.271,4.271,0,0,0-4.424,4.62v2.268H71.316v2.38h2.492V0h2.716V-11.088Zm10.3-2.52a4.953,4.953,0,0,0-.868-.084,4.217,4.217,0,0,0-4.032,2.576v-2.352H82.6V0h2.632V-6.748c0-2.968,1.484-4.144,3.7-4.144a8.215,8.215,0,0,1,1.148.084ZM98.5-1.932c-2.24,0-4.2-1.68-4.2-4.816,0-3.108,1.96-4.788,4.2-4.788s4.2,1.68,4.2,4.788C102.7-3.612,100.744-1.932,98.5-1.932Zm0-11.956a6.791,6.791,0,0,0-6.888,7.14A6.8,6.8,0,0,0,98.5.42a6.8,6.8,0,0,0,6.888-7.168A6.791,6.791,0,0,0,98.5-13.888ZM111.356,0V-8.12a3.124,3.124,0,0,1,3.136-3.416c2.016,0,2.856,1.344,2.856,3.08V0h2.632V-8.148a3.14,3.14,0,0,1,3.108-3.388c1.988,0,2.856,1.316,2.856,3.08V0h2.6V-8.736c0-3.528-2.3-5.124-4.648-5.124a4.834,4.834,0,0,0-4.508,2.548,4.207,4.207,0,0,0-4.032-2.548,4.644,4.644,0,0,0-4.088,2.184v-1.792h-2.52V0Zm31.92-17.724h-2.408v2.184a1.884,1.884,0,0,1-2.072,2.072h-.728v2.38h2.576V-3.7A3.5,3.5,0,0,0,144.4.14a5.76,5.76,0,0,0,1.792-.252v-2.24a5.327,5.327,0,0,1-1.036.112c-1.372,0-1.876-.616-1.876-1.848v-7h2.912v-2.38h-2.912Zm9.044,9.8c.056-1.988,1.12-3.556,3.136-3.556,2.352,0,3.136,1.512,3.136,3.388V0h2.632V-8.54c0-3-1.6-5.32-4.816-5.32a4.764,4.764,0,0,0-4.088,1.96v-8.372h-2.632V0h2.632Zm14.812-.2a3.623,3.623,0,0,1,3.668-3.444,3.394,3.394,0,0,1,3.7,3.444Zm7.756,3.5a3.669,3.669,0,0,1-3.78,2.716,4,4,0,0,1-4.06-4.088h10.136a5.916,5.916,0,0,0,.056-.84c0-4.2-2.324-7.056-6.468-7.056-3.388,0-6.44,2.884-6.44,7.112,0,4.564,3.164,7.2,6.776,7.2a6.1,6.1,0,0,0,6.048-4.256Zm25.648-10.724c-.448-2.156-2.24-4.928-6.72-4.928-3.668,0-6.552,2.8-6.552,5.908,0,2.968,2.016,4.816,4.844,5.432l2.828.616c1.988.42,2.968,1.652,2.968,3.08,0,1.736-1.344,3.164-4.088,3.164a4.511,4.511,0,0,1-4.76-4.256l-2.632.84c.364,2.828,2.632,5.908,7.42,5.908,4.228,0,6.86-2.8,6.86-5.88,0-2.772-1.848-4.844-5.152-5.572l-2.968-.644a2.875,2.875,0,0,1-2.548-2.884c0-1.848,1.6-3.3,3.836-3.3a4.027,4.027,0,0,1,4.2,3.388Zm6.16,7.42c.056-1.988,1.12-3.556,3.136-3.556,2.352,0,3.136,1.512,3.136,3.388V0H215.6V-8.54c0-3-1.6-5.32-4.816-5.32A4.764,4.764,0,0,0,206.7-11.9v-8.372h-2.632V0H206.7Zm14.812-.2a3.623,3.623,0,0,1,3.668-3.444,3.394,3.394,0,0,1,3.7,3.444Zm7.756,3.5a3.669,3.669,0,0,1-3.78,2.716,4,4,0,0,1-4.06-4.088H231.56a5.916,5.916,0,0,0,.056-.84c0-4.2-2.324-7.056-6.468-7.056-3.388,0-6.44,2.884-6.44,7.112,0,4.564,3.164,7.2,6.776,7.2a6.1,6.1,0,0,0,6.048-4.256ZM237.608,0V-20.272h-2.632V0Zm8.008-17.724h-2.408v2.184a1.884,1.884,0,0,1-2.072,2.072h-.728v2.38h2.576V-3.7A3.5,3.5,0,0,0,246.736.14a5.76,5.76,0,0,0,1.792-.252v-2.24a5.327,5.327,0,0,1-1.036.112c-1.372,0-1.876-.616-1.876-1.848v-7h2.912v-2.38h-2.912Zm7.98,9.6a3.623,3.623,0,0,1,3.668-3.444,3.394,3.394,0,0,1,3.7,3.444Zm7.756,3.5a3.669,3.669,0,0,1-3.78,2.716,4,4,0,0,1-4.06-4.088h10.136a5.914,5.914,0,0,0,.056-.84c0-4.2-2.324-7.056-6.468-7.056-3.388,0-6.44,2.884-6.44,7.112,0,4.564,3.164,7.2,6.776,7.2a6.1,6.1,0,0,0,6.048-4.256Zm13.188-8.988a4.953,4.953,0,0,0-.868-.084,4.217,4.217,0,0,0-4.032,2.576v-2.352h-2.576V0H269.7V-6.748c0-2.968,1.484-4.144,3.7-4.144a8.215,8.215,0,0,1,1.148.084Z" transform="translate(1192 730)" fill="#707070"/>
    <g id="Path_400" data-name="Path 400" transform="translate(905 819)" fill="#fff">
      <path d="M15,0H559a15,15,0,0,1,15,15V47a15,15,0,0,1-15,15H15A15,15,0,0,1,0,47V15A15,15,0,0,1,15,0Z" stroke="none"/>
      <path d="M 15 3 C 11.794677734375 3 8.78125 4.24822998046875 6.51470947265625 6.514694213867188 C 4.24822998046875 8.781230926513672 3 11.79469299316406 3 15 L 3 47 C 3 50.20530700683594 4.24822998046875 53.21876907348633 6.51470947265625 55.48530578613281 C 8.78125 57.75177001953125 11.794677734375 59 15 59 L 559 59 C 562.205322265625 59 565.21875 57.75177001953125 567.4852905273438 55.48530578613281 C 569.7517700195313 53.21876907348633 571 50.20530700683594 571 47 L 571 15 C 571 11.79469299316406 569.7517700195313 8.781230926513672 567.4852905273438 6.514694213867188 C 565.21875 4.24822998046875 562.205322265625 3 559 3 L 15 3 M 15 0 L 559 0 C 567.2843017578125 0 574 6.715690612792969 574 15 L 574 47 C 574 55.28430938720703 567.2843017578125 62 559 62 L 15 62 C 6.7156982421875 62 0 55.28430938720703 0 47 L 0 15 C 0 6.715690612792969 6.7156982421875 0 15 0 Z" stroke="none" fill="rgba(0,0,0,0.13)"/>
    </g>
    <path id="Path_399" data-name="Path 399" d="M-231.168,0h2.968l-7.9-19.852h-3.164L-247.156,0h2.94l2.1-5.544h8.792Zm-6.58-17,3.444,8.9h-6.832ZM-226.94.728c.336,2.884,2.856,5.012,6.216,5.012,5.068,0,6.748-3.332,6.748-6.748v-12.46h-2.6v1.876c-.672-1.344-2.072-2.128-4.144-2.128-3.7,0-6.188,2.912-6.188,6.552,0,3.808,2.6,6.524,6.188,6.524a4.485,4.485,0,0,0,4.116-2.212V-.924c0,2.912-1.288,4.368-4.116,4.368a3.581,3.581,0,0,1-3.668-3.3Zm6.608-3.584c-2.38,0-3.892-1.68-3.892-4.312,0-2.6,1.568-4.312,3.892-4.312,2.268,0,3.836,1.708,3.836,4.312S-218.064-2.856-220.332-2.856ZM-202.3-13.608a4.953,4.953,0,0,0-.868-.084,4.217,4.217,0,0,0-4.032,2.576v-2.352h-2.576V0h2.632V-6.748c0-2.968,1.484-4.144,3.7-4.144a8.215,8.215,0,0,1,1.148.084Zm4.368,5.488a3.623,3.623,0,0,1,3.668-3.444,3.394,3.394,0,0,1,3.7,3.444Zm7.756,3.5a3.669,3.669,0,0,1-3.78,2.716,4,4,0,0,1-4.06-4.088h10.136a5.916,5.916,0,0,0,.056-.84c0-4.2-2.324-7.056-6.468-7.056-3.388,0-6.44,2.884-6.44,7.112,0,4.564,3.164,7.2,6.776,7.2a6.1,6.1,0,0,0,6.048-4.256Zm7.42-3.5a3.623,3.623,0,0,1,3.668-3.444,3.394,3.394,0,0,1,3.7,3.444ZM-175-4.62A3.669,3.669,0,0,1-178.78-1.9a4,4,0,0,1-4.06-4.088H-172.7a5.916,5.916,0,0,0,.056-.84c0-4.2-2.324-7.056-6.468-7.056-3.388,0-6.44,2.884-6.44,7.112,0,4.564,3.164,7.2,6.776,7.2a6.1,6.1,0,0,0,6.048-4.256ZM-166.684,0V-8.12a3.124,3.124,0,0,1,3.136-3.416c2.016,0,2.856,1.344,2.856,3.08V0h2.632V-8.148a3.14,3.14,0,0,1,3.108-3.388c1.988,0,2.856,1.316,2.856,3.08V0h2.6V-8.736c0-3.528-2.3-5.124-4.648-5.124a4.834,4.834,0,0,0-4.508,2.548,4.207,4.207,0,0,0-4.032-2.548,4.644,4.644,0,0,0-4.088,2.184v-1.792h-2.52V0Zm23.1-8.12a3.623,3.623,0,0,1,3.668-3.444,3.394,3.394,0,0,1,3.7,3.444Zm7.756,3.5a3.669,3.669,0,0,1-3.78,2.716,4,4,0,0,1-4.06-4.088h10.136a5.916,5.916,0,0,0,.056-.84c0-4.2-2.324-7.056-6.468-7.056-3.388,0-6.44,2.884-6.44,7.112,0,4.564,3.164,7.2,6.776,7.2a6.1,6.1,0,0,0,6.048-4.256Zm8.344-3.164c0-2.044,1.064-3.7,3.136-3.7,2.352,0,3.136,1.512,3.136,3.388V0h2.632V-8.54c0-3-1.6-5.32-4.816-5.32a4.613,4.613,0,0,0-4.144,2.324v-1.932h-2.576V0h2.632Zm16.632-9.94h-2.408v2.184a1.884,1.884,0,0,1-2.072,2.072h-.728v2.38h2.576V-3.7A3.5,3.5,0,0,0-109.732.14a5.76,5.76,0,0,0,1.792-.252v-2.24a5.327,5.327,0,0,1-1.036.112c-1.372,0-1.876-.616-1.876-1.848v-7h2.912v-2.38h-2.912Zm16.436,7.14v-6.8h3.976c2.38,0,3.836,1.344,3.836,3.444,0,2.044-1.456,3.36-3.836,3.36Zm4.48,2.464A5.753,5.753,0,0,0-83.8-13.972a5.79,5.79,0,0,0-6.132-5.88H-97.16V0h2.744V-8.12ZM-82.4-3.612A4.2,4.2,0,0,0-77.9.42a4.91,4.91,0,0,0,4.34-2.24A9.853,9.853,0,0,0-73.416,0h2.576a12.668,12.668,0,0,1-.168-2.212V-8.96c0-2.632-1.568-4.928-5.6-4.928-2.912,0-5.236,1.792-5.516,4.368l2.52.588a2.858,2.858,0,0,1,3.052-2.716c2.044,0,2.912,1.092,2.912,2.408,0,.476-.224.9-1.036,1.008l-3.64.532C-80.64-7.364-82.4-6.02-82.4-3.612Zm4.872,1.82a2.042,2.042,0,0,1-2.184-1.96,2.014,2.014,0,0,1,1.96-2.016l4.116-.616v.616C-73.64-2.828-75.376-1.792-77.532-1.792ZM-64.316,5.32V-1.82A5.009,5.009,0,0,0-59.948.364c3.948,0,6.272-3.108,6.272-7.112,0-3.92-2.156-7.028-6.188-7.028a4.967,4.967,0,0,0-4.508,2.408v-2.1H-66.92V5.32Zm7.952-12.068c0,2.772-1.54,4.76-3.976,4.76-2.408,0-4-1.988-4-4.76,0-2.688,1.6-4.7,4-4.7C-57.876-11.452-56.364-9.436-56.364-6.748Zm7.756-1.372a3.623,3.623,0,0,1,3.668-3.444,3.394,3.394,0,0,1,3.7,3.444Zm7.756,3.5A3.669,3.669,0,0,1-44.632-1.9a4,4,0,0,1-4.06-4.088h10.136a5.916,5.916,0,0,0,.056-.84c0-4.2-2.324-7.056-6.468-7.056-3.388,0-6.44,2.884-6.44,7.112,0,4.564,3.164,7.2,6.776,7.2a6.1,6.1,0,0,0,6.048-4.256Zm13.188-8.988a4.953,4.953,0,0,0-.868-.084,4.217,4.217,0,0,0-4.032,2.576v-2.352H-35.14V0h2.632V-6.748c0-2.968,1.484-4.144,3.7-4.144a8.215,8.215,0,0,1,1.148.084Zm10.668.14L-20.5-3.332-23.52-13.468H-26.4L-21.98,0h2.772l3.5-10.248L-12.124,0h2.716L-5.04-13.468H-7.812L-10.78-3.332l-3.5-10.136ZM3.108-1.932c-2.24,0-4.2-1.68-4.2-4.816,0-3.108,1.96-4.788,4.2-4.788s4.2,1.68,4.2,4.788C7.308-3.612,5.348-1.932,3.108-1.932Zm0-11.956A6.791,6.791,0,0,0-3.78-6.748,6.8,6.8,0,0,0,3.108.42,6.8,6.8,0,0,0,10-6.748,6.791,6.791,0,0,0,3.108-13.888Zm17.724.28a4.953,4.953,0,0,0-.868-.084,4.217,4.217,0,0,0-4.032,2.576v-2.352H13.356V0h2.632V-6.748c0-2.968,1.484-4.144,3.7-4.144a8.215,8.215,0,0,1,1.148.084Zm14.868.14H32.06L26.236-7.5V-20.272h-2.6V0h2.6V-4.06l1.876-1.876L32.508,0h3.3L29.96-7.784Zm16.408,2.38v-2.38H48.86V-15.6a2.019,2.019,0,0,1,2.128-2.3,3.039,3.039,0,0,1,1.148.168v-2.352a3.4,3.4,0,0,0-1.568-.28,4.271,4.271,0,0,0-4.424,4.62v2.268H43.652v2.38h2.492V0H48.86V-11.088Zm10.3-2.52a4.953,4.953,0,0,0-.868-.084,4.217,4.217,0,0,0-4.032,2.576v-2.352H54.936V0h2.632V-6.748c0-2.968,1.484-4.144,3.7-4.144a8.215,8.215,0,0,1,1.148.084ZM70.84-1.932c-2.24,0-4.2-1.68-4.2-4.816,0-3.108,1.96-4.788,4.2-4.788s4.2,1.68,4.2,4.788C75.04-3.612,73.08-1.932,70.84-1.932Zm0-11.956a6.791,6.791,0,0,0-6.888,7.14A6.8,6.8,0,0,0,70.84.42a6.8,6.8,0,0,0,6.888-7.168A6.791,6.791,0,0,0,70.84-13.888ZM83.692,0V-8.12a3.124,3.124,0,0,1,3.136-3.416c2.016,0,2.856,1.344,2.856,3.08V0h2.632V-8.148a3.14,3.14,0,0,1,3.108-3.388c1.988,0,2.856,1.316,2.856,3.08V0h2.6V-8.736c0-3.528-2.3-5.124-4.648-5.124a4.834,4.834,0,0,0-4.508,2.548A4.207,4.207,0,0,0,87.7-13.86a4.644,4.644,0,0,0-4.088,2.184v-1.792h-2.52V0Zm31.92-17.724H113.2v2.184a1.884,1.884,0,0,1-2.072,2.072H110.4v2.38h2.576V-3.7A3.5,3.5,0,0,0,116.732.14a5.76,5.76,0,0,0,1.792-.252v-2.24a5.327,5.327,0,0,1-1.036.112c-1.372,0-1.876-.616-1.876-1.848v-7h2.912v-2.38h-2.912Zm9.044,9.8c.056-1.988,1.12-3.556,3.136-3.556,2.352,0,3.136,1.512,3.136,3.388V0h2.632V-8.54c0-3-1.6-5.32-4.816-5.32a4.764,4.764,0,0,0-4.088,1.96v-8.372h-2.632V0h2.632Zm14.812-.2a3.623,3.623,0,0,1,3.668-3.444,3.394,3.394,0,0,1,3.7,3.444Zm7.756,3.5a3.669,3.669,0,0,1-3.78,2.716,4,4,0,0,1-4.06-4.088H149.52a5.916,5.916,0,0,0,.056-.84c0-4.2-2.324-7.056-6.468-7.056-3.388,0-6.44,2.884-6.44,7.112,0,4.564,3.164,7.2,6.776,7.2a6.1,6.1,0,0,0,6.048-4.256Zm25.648-10.724c-.448-2.156-2.24-4.928-6.72-4.928-3.668,0-6.552,2.8-6.552,5.908,0,2.968,2.016,4.816,4.844,5.432l2.828.616c1.988.42,2.968,1.652,2.968,3.08,0,1.736-1.344,3.164-4.088,3.164a4.511,4.511,0,0,1-4.76-4.256l-2.632.84C159.124-2.66,161.392.42,166.18.42c4.228,0,6.86-2.8,6.86-5.88,0-2.772-1.848-4.844-5.152-5.572l-2.968-.644a2.875,2.875,0,0,1-2.548-2.884c0-1.848,1.6-3.3,3.836-3.3a4.027,4.027,0,0,1,4.2,3.388Zm6.16,7.42c.056-1.988,1.12-3.556,3.136-3.556,2.352,0,3.136,1.512,3.136,3.388V0h2.632V-8.54c0-3-1.6-5.32-4.816-5.32a4.764,4.764,0,0,0-4.088,1.96v-8.372H176.4V0h2.632Zm14.812-.2a3.623,3.623,0,0,1,3.668-3.444,3.394,3.394,0,0,1,3.7,3.444Zm7.756,3.5A3.669,3.669,0,0,1,197.82-1.9a4,4,0,0,1-4.06-4.088H203.9a5.916,5.916,0,0,0,.056-.84c0-4.2-2.324-7.056-6.468-7.056-3.388,0-6.44,2.884-6.44,7.112,0,4.564,3.164,7.2,6.776,7.2a6.1,6.1,0,0,0,6.048-4.256ZM209.944,0V-20.272h-2.632V0Zm8.008-17.724h-2.408v2.184a1.884,1.884,0,0,1-2.072,2.072h-.728v2.38h2.576V-3.7A3.5,3.5,0,0,0,219.072.14a5.76,5.76,0,0,0,1.792-.252v-2.24a5.327,5.327,0,0,1-1.036.112c-1.372,0-1.876-.616-1.876-1.848v-7h2.912v-2.38h-2.912Zm7.98,9.6a3.623,3.623,0,0,1,3.668-3.444,3.394,3.394,0,0,1,3.7,3.444Zm7.756,3.5a3.669,3.669,0,0,1-3.78,2.716,4,4,0,0,1-4.06-4.088h10.136a5.916,5.916,0,0,0,.056-.84c0-4.2-2.324-7.056-6.468-7.056-3.388,0-6.44,2.884-6.44,7.112,0,4.564,3.164,7.2,6.776,7.2a6.1,6.1,0,0,0,6.048-4.256Zm13.188-8.988a4.953,4.953,0,0,0-.868-.084,4.217,4.217,0,0,0-4.032,2.576v-2.352H239.4V0h2.632V-6.748c0-2.968,1.484-4.144,3.7-4.144a8.215,8.215,0,0,1,1.148.084Z" transform="translate(1192 859)" fill="#707070"/>
    <g id="Path_398" data-name="Path 398" transform="translate(1068 948)" fill="#fff">
      <path d="M15,0H233a15,15,0,0,1,15,15V47a15,15,0,0,1-15,15H15A15,15,0,0,1,0,47V15A15,15,0,0,1,15,0Z" stroke="none"/>
      <path d="M 15 3 C 11.79469299316406 3 8.781234741210938 4.248233795166016 6.514739990234375 6.514732360839844 C 4.24822998046875 8.781234741210938 3 11.79470062255859 3 15 L 3 47 C 3 50.20529937744141 4.24822998046875 53.21876525878906 6.514739990234375 55.48526763916016 C 8.781234741210938 57.75176620483398 11.79469299316406 59 15 59 L 233 59 C 236.2053070068359 59 239.2187652587891 57.75176620483398 241.4852600097656 55.48526763916016 C 243.7517700195313 53.21876525878906 245 50.20529937744141 245 47 L 245 15 C 245 11.79470062255859 243.7517700195313 8.781234741210938 241.4852600097656 6.514732360839844 C 239.2187652587891 4.248233795166016 236.2053070068359 3 233 3 L 15 3 M 15 0 L 233 0 C 241.2842712402344 0 248 6.715732574462891 248 15 L 248 47 C 248 55.28426742553711 241.2842712402344 62 233 62 L 15 62 C 6.715728759765625 62 0 55.28426742553711 0 47 L 0 15 C 0 6.715732574462891 6.715728759765625 0 15 0 Z" stroke="none" fill="rgba(0,0,0,0.13)"/>
    </g>
    <path id="Path_397" data-name="Path 397" d="M-68.11,0h2.968l-7.9-19.852H-76.2L-84.1,0h2.94l2.1-5.544h8.792Zm-6.58-17,3.444,8.9h-6.832Zm13.356,10.22c0-2.772,1.568-4.732,3.976-4.732s3.864,1.9,3.864,4.676S-54.978-1.96-57.386-1.96C-59.906-1.96-61.334-4-61.334-6.776Zm7.868,4.956A11.281,11.281,0,0,0-53.326,0h2.548a21.308,21.308,0,0,1-.14-2.492v-17.78h-2.6v8.708c-.448-1.092-1.736-2.268-4.116-2.268-3.808,0-6.384,3.248-6.384,7.056,0,4,2.436,7.14,6.384,7.14a4.509,4.509,0,0,0,4.172-2.408Zm12.8-.112c-2.24,0-4.2-1.68-4.2-4.816,0-3.108,1.96-4.788,4.2-4.788s4.2,1.68,4.2,4.788C-36.47-3.612-38.43-1.932-40.67-1.932Zm0-11.956a6.791,6.791,0,0,0-6.888,7.14A6.8,6.8,0,0,0-40.67.42a6.8,6.8,0,0,0,6.888-7.168A6.791,6.791,0,0,0-40.67-13.888ZM-27.818,5.32V-1.82A5.009,5.009,0,0,0-23.45.364c3.948,0,6.272-3.108,6.272-7.112,0-3.92-2.156-7.028-6.188-7.028a4.967,4.967,0,0,0-4.508,2.408v-2.1h-2.548V5.32Zm7.952-12.068c0,2.772-1.54,4.76-3.976,4.76-2.408,0-4-1.988-4-4.76,0-2.688,1.6-4.7,4-4.7C-21.378-11.452-19.866-9.436-19.866-6.748Zm9.436-10.976h-2.408v2.184a1.884,1.884,0,0,1-2.072,2.072h-.728v2.38h2.576V-3.7A3.5,3.5,0,0,0-9.31.14,5.761,5.761,0,0,0-7.518-.112v-2.24a5.327,5.327,0,0,1-1.036.112c-1.372,0-1.876-.616-1.876-1.848v-7h2.912v-2.38H-10.43ZM-1.414,0V-13.468h-2.6V0ZM-4.606-18.564A1.876,1.876,0,0,0-2.73-16.688a1.882,1.882,0,0,0,1.9-1.876,1.888,1.888,0,0,0-1.9-1.9A1.882,1.882,0,0,0-4.606-18.564ZM8.834-1.932c-2.24,0-4.2-1.68-4.2-4.816,0-3.108,1.96-4.788,4.2-4.788s4.2,1.68,4.2,4.788C13.034-3.612,11.074-1.932,8.834-1.932Zm0-11.956a6.791,6.791,0,0,0-6.888,7.14A6.8,6.8,0,0,0,8.834.42a6.8,6.8,0,0,0,6.888-7.168A6.791,6.791,0,0,0,8.834-13.888Zm12.88,6.1c0-2.044,1.064-3.7,3.136-3.7,2.352,0,3.136,1.512,3.136,3.388V0h2.632V-8.54c0-3-1.6-5.32-4.816-5.32a4.613,4.613,0,0,0-4.144,2.324v-1.932H19.082V0h2.632ZM44.842,0V-8.344H53.3V-10.92H44.842V-17.3h9.324v-2.548H42.1V0ZM57.974-8.12a3.623,3.623,0,0,1,3.668-3.444,3.394,3.394,0,0,1,3.7,3.444Zm7.756,3.5A3.669,3.669,0,0,1,61.95-1.9a4,4,0,0,1-4.06-4.088H68.026a5.916,5.916,0,0,0,.056-.84c0-4.2-2.324-7.056-6.468-7.056-3.388,0-6.44,2.884-6.44,7.112,0,4.564,3.164,7.2,6.776,7.2A6.1,6.1,0,0,0,68-3.836Zm7.42-3.5a3.623,3.623,0,0,1,3.668-3.444,3.394,3.394,0,0,1,3.7,3.444Zm7.756,3.5A3.669,3.669,0,0,1,77.126-1.9a4,4,0,0,1-4.06-4.088H83.2a5.916,5.916,0,0,0,.056-.84c0-4.2-2.324-7.056-6.468-7.056-3.388,0-6.44,2.884-6.44,7.112,0,4.564,3.164,7.2,6.776,7.2a6.1,6.1,0,0,0,6.048-4.256Z" transform="translate(1192 988)" fill="#707070"/>
  </g>
</svg>
