<svg xmlns="http://www.w3.org/2000/svg" xmlns:xlink="http://www.w3.org/1999/xlink" width="390.633" height="634.75" viewBox="0 0 390.633 634.75">
  <defs>
    <filter id="Rectangle_20" x="0" y="0" width="390.633" height="634.75" filterUnits="userSpaceOnUse">
      <feOffset dy="3" input="SourceAlpha"/>
      <feGaussianBlur stdDeviation="17.5" result="blur"/>
      <feFlood flood-opacity="0.161"/>
      <feComposite operator="in" in2="blur"/>
      <feComposite in="SourceGraphic"/>
    </filter>
  </defs>
  <g id="Group_12" data-name="Group 12" transform="translate(-874.5 -441.5)">
    <g transform="matrix(1, 0, 0, 1, 874.5, 441.5)" filter="url(#Rectangle_20)">
      <rect id="Rectangle_20-2" data-name="Rectangle 20" width="285.633" height="529.75" rx="61" transform="translate(52.5 49.5)" fill="#fff"/>
    </g>
    <g id="Rectangle_8" data-name="Rectangle 8" transform="translate(927 627.174)" fill="#f6f6f6" stroke="#ababab" stroke-width="1" opacity="0.4">
      <path d="M0,0H206.7a15,15,0,0,1,15,15V48.105a15,15,0,0,1-15,15H0a0,0,0,0,1,0,0V0A0,0,0,0,1,0,0Z" stroke="none"/>
      <path d="M1,.5H206.7A14.5,14.5,0,0,1,221.2,15V48.105a14.5,14.5,0,0,1-14.5,14.5H1a.5.5,0,0,1-.5-.5V1A.5.5,0,0,1,1,.5Z" fill="none"/>
    </g>
    <g id="Rectangle_10" data-name="Rectangle 10" transform="translate(927 770.821)" fill="#f6f6f6" stroke="#ababab" stroke-width="1" opacity="0.4">
      <path d="M0,0H206.7a15,15,0,0,1,15,15V48.105a15,15,0,0,1-15,15H0a0,0,0,0,1,0,0V0A0,0,0,0,1,0,0Z" stroke="none"/>
      <path d="M1,.5H206.7A14.5,14.5,0,0,1,221.2,15V48.105a14.5,14.5,0,0,1-14.5,14.5H1a.5.5,0,0,1-.5-.5V1A.5.5,0,0,1,1,.5Z" fill="none"/>
    </g>
    <path id="Rectangle_15" data-name="Rectangle 15" d="M0,0H170.163a15,15,0,0,1,15,15V33.159a15,15,0,0,1-15,15H0a0,0,0,0,1,0,0V0A0,0,0,0,1,0,0Z" transform="translate(927 840.569)" fill="#52bc67"/>
    <path id="Rectangle_16" data-name="Rectangle 16" d="M0,0H99.585a15,15,0,0,1,15,15V33.159a15,15,0,0,1-15,15H0a0,0,0,0,1,0,0V0A0,0,0,0,1,0,0Z" transform="translate(927 895.37)" fill="#ff9100"/>
    <path id="Rectangle_18" data-name="Rectangle 18" d="M15,0H221.7a0,0,0,0,1,0,0V62.275a0,0,0,0,1,0,0H15a15,15,0,0,1-15-15V15A15,15,0,0,1,15,0Z" transform="translate(991.766 558.257)" fill="#318aff"/>
    <path id="Rectangle_19" data-name="Rectangle 19" d="M0,0H201.716a15,15,0,0,1,15,15V27.347a15,15,0,0,1-15,15H0a0,0,0,0,1,0,0V0A0,0,0,0,1,0,0Z" transform="translate(927 721.832)" fill="#52bc67"/>
    <path id="Path_377" data-name="Path 377" d="M2.24-9.338H1.2V0H2.24V-4.564H7.028V0H8.064V-9.338H7.028v3.794H2.24ZM10.3-5.81V0h1.008V-5.81Zm-.21-2.2a.717.717,0,0,0,.714.714.717.717,0,0,0,.714-.714.717.717,0,0,0-.714-.714A.717.717,0,0,0,10.094-8.008ZM14.812-1.89V-9.338H13.8V-1.89Zm-1.2,1.33a.711.711,0,0,0,.7.7.711.711,0,0,0,.7-.7.711.711,0,0,0-.7-.7A.711.711,0,0,0,13.608-.56ZM22.876,0h1.036V-4.018l3.094-5.32H25.8L23.394-5.166l-2.38-4.172h-1.2l3.066,5.32Zm8.2-1.946a2.315,2.315,0,0,1-.6.8,1.766,1.766,0,0,1-1.19.42A1.861,1.861,0,0,1,27.44-2.7h4.522a3.9,3.9,0,0,0-.546-2.184,2.6,2.6,0,0,0-2.2-1.064A2.817,2.817,0,0,0,26.4-2.87,2.781,2.781,0,0,0,29.274.168a2.82,2.82,0,0,0,1.932-.714,3.476,3.476,0,0,0,.714-.938Zm-3.57-1.6a1.766,1.766,0,0,1,1.708-1.512,1.739,1.739,0,0,1,1.708,1.512Zm9.3-1.358a1.676,1.676,0,0,0-1.6-1.05,1.562,1.562,0,0,0-1.694,1.624,1.262,1.262,0,0,0,.266.854,3.79,3.79,0,0,0,1.414.854c.546.238.938.42.938.966a.9.9,0,0,1-.952.924,1.315,1.315,0,0,1-1.176-.952l-.868.364A2.078,2.078,0,0,0,35.168.168a1.848,1.848,0,0,0,2-1.9,1.375,1.375,0,0,0-.308-.938,3.532,3.532,0,0,0-1.456-.9c-.658-.28-.938-.406-.938-.826a.642.642,0,0,1,.7-.658.891.891,0,0,1,.812.588Zm1.176,6.762.658.266,1.414-3.164-.924-.336Zm9.926-6.748V-5.81H46.9v-2.1H45.892v2.1h-.616v.924h.616V0H46.9V-4.886ZM48.944,0h1.008V-3.038a2.447,2.447,0,0,1,.42-1.568,1.27,1.27,0,0,1,1.022-.448,1.14,1.14,0,0,1,.952.42,1.708,1.708,0,0,1,.266,1.064V0H53.62V-3.6a2.591,2.591,0,0,0-.336-1.554,1.971,1.971,0,0,0-1.666-.8,2.05,2.05,0,0,0-1.666.812v-5.068H48.944Zm6.664-5.81V0h1.008V-5.81Zm-.21-2.2a.717.717,0,0,0,.714.714.717.717,0,0,0,.714-.714.717.717,0,0,0-.714-.714A.717.717,0,0,0,55.4-8.008ZM61.824-4.9a1.676,1.676,0,0,0-1.6-1.05,1.562,1.562,0,0,0-1.694,1.624,1.262,1.262,0,0,0,.266.854,3.79,3.79,0,0,0,1.414.854c.546.238.938.42.938.966a.9.9,0,0,1-.952.924,1.315,1.315,0,0,1-1.176-.952l-.868.364A2.078,2.078,0,0,0,60.186.168a1.848,1.848,0,0,0,2-1.9,1.375,1.375,0,0,0-.308-.938,3.532,3.532,0,0,0-1.456-.9c-.658-.28-.938-.406-.938-.826a.642.642,0,0,1,.7-.658A.891.891,0,0,1,61-4.466Zm9.59-.084a2.4,2.4,0,0,0-1.988-.966A2.792,2.792,0,0,0,66.6-2.912,2.813,2.813,0,0,0,69.426.168a2.451,2.451,0,0,0,1.988-.98V0h1.008V-10.206H71.414Zm-1.876-.07A1.968,1.968,0,0,1,71.47-2.9a1.987,1.987,0,0,1-1.932,2.17,1.943,1.943,0,0,1-1.9-2.184A1.931,1.931,0,0,1,69.538-5.054ZM77.126.168a2.98,2.98,0,0,0,3.08-3.052,2.983,2.983,0,0,0-3.08-3.066,2.983,2.983,0,0,0-3.08,3.066A2.98,2.98,0,0,0,77.126.168Zm0-5.222a2.011,2.011,0,0,1,2.044,2.17A2.014,2.014,0,0,1,77.126-.728a2.014,2.014,0,0,1-2.044-2.156A2.019,2.019,0,0,1,77.126-5.054Zm9.156.07a2.416,2.416,0,0,0-1.988-.966,2.865,2.865,0,0,0-1.988.784,3.047,3.047,0,0,0-.84,2.254,3.147,3.147,0,0,0,.84,2.3,2.783,2.783,0,0,0,1.988.784,2.451,2.451,0,0,0,1.988-.98v.84a2.7,2.7,0,0,1-.322,1.484,1.629,1.629,0,0,1-1.54.812,1.8,1.8,0,0,1-1.4-.56,1.829,1.829,0,0,1-.448-1.2h-.994a2.618,2.618,0,0,0,.756,1.876,2.877,2.877,0,0,0,2.072.784A2.827,2.827,0,0,0,86.73,2.142,3.655,3.655,0,0,0,87.29-.14V-5.81H86.282Zm-1.876-.07a1.863,1.863,0,0,1,1.316.518A2.3,2.3,0,0,1,86.338-2.9a2.355,2.355,0,0,1-.658,1.68,1.72,1.72,0,0,1-1.274.49A1.758,1.758,0,0,1,83.16-1.2,2.24,2.24,0,0,1,82.5-2.912a2.212,2.212,0,0,1,.588-1.6A1.8,1.8,0,0,1,84.406-5.054ZM97.174-5.39a3.077,3.077,0,0,0-1.806-.56A3,3,0,0,0,92.26-2.87,2.976,2.976,0,0,0,95.368.168a3.1,3.1,0,0,0,1.848-.6v-1.2a2.477,2.477,0,0,1-1.876.91A2.022,2.022,0,0,1,93.3-2.884a2.022,2.022,0,0,1,2.058-2.17,2.344,2.344,0,0,1,1.82.868Zm6.118.406A2.4,2.4,0,0,0,101.3-5.95a2.792,2.792,0,0,0-2.828,3.038A2.813,2.813,0,0,0,101.3.168a2.451,2.451,0,0,0,1.988-.98V0H104.3V-5.81h-1.008Zm-1.876-.07A1.968,1.968,0,0,1,103.348-2.9a1.987,1.987,0,0,1-1.932,2.17,1.943,1.943,0,0,1-1.9-2.184A1.931,1.931,0,0,1,101.416-5.054ZM106.288,0H107.3V-3.038a2.447,2.447,0,0,1,.42-1.568,1.27,1.27,0,0,1,1.022-.448,1.14,1.14,0,0,1,.952.42,1.708,1.708,0,0,1,.266,1.064V0h1.008V-3.6a2.591,2.591,0,0,0-.336-1.554,1.971,1.971,0,0,0-1.666-.8,2.05,2.05,0,0,0-1.666.812V-5.81h-1.008Zm15.26-8.036a2.824,2.824,0,0,0-.91-1.036,2.53,2.53,0,0,0-1.5-.42,2.413,2.413,0,0,0-2.618,2.408,1.939,1.939,0,0,0,.644,1.526,4.134,4.134,0,0,0,1.246.77l.84.392a4.074,4.074,0,0,1,1.12.644,1.393,1.393,0,0,1,.462,1.092,1.767,1.767,0,0,1-1.876,1.848,1.785,1.785,0,0,1-1.344-.518,2.2,2.2,0,0,1-.56-1.19l-1.008.28a3.385,3.385,0,0,0,.868,1.652,2.785,2.785,0,0,0,2.03.756A2.8,2.8,0,0,0,121.9-2.7a2.247,2.247,0,0,0-.672-1.694,4.536,4.536,0,0,0-1.442-.882l-.9-.392a3.049,3.049,0,0,1-.98-.588.979.979,0,0,1-.35-.812,1.433,1.433,0,0,1,1.568-1.442,1.68,1.68,0,0,1,1.05.322,2.25,2.25,0,0,1,.546.7Zm4.13,3.15V-5.81H124.67v-2.1h-1.008v2.1h-.616v.924h.616V0h1.008V-4.886Zm5.488-.1a2.4,2.4,0,0,0-1.988-.966,2.792,2.792,0,0,0-2.828,3.038,2.813,2.813,0,0,0,2.828,3.08,2.451,2.451,0,0,0,1.988-.98V0h1.008V-5.81h-1.008Zm-1.876-.07A1.968,1.968,0,0,1,131.222-2.9a1.987,1.987,0,0,1-1.932,2.17,1.943,1.943,0,0,1-1.9-2.184A1.931,1.931,0,0,1,129.29-5.054Zm4.858,8.274h1.12l4.27-9.03h-1.12l-1.89,4.158L134.47-5.81h-1.148L136-.546Zm9.884-9.03V0h1.008V-5.81Zm-.21-2.2a.717.717,0,0,0,.714.714.717.717,0,0,0,.714-.714.717.717,0,0,0-.714-.714A.717.717,0,0,0,143.822-8.008ZM147.028,0h1.008V-3.038a2.447,2.447,0,0,1,.42-1.568,1.27,1.27,0,0,1,1.022-.448,1.14,1.14,0,0,1,.952.42A1.708,1.708,0,0,1,150.7-3.57V0H151.7V-3.6a2.591,2.591,0,0,0-.336-1.554,1.971,1.971,0,0,0-1.666-.8,2.05,2.05,0,0,0-1.666.812V-5.81h-1.008Zm11.116-4.984a2.4,2.4,0,0,0-1.988-.966,2.792,2.792,0,0,0-2.828,3.038,2.813,2.813,0,0,0,2.828,3.08,2.451,2.451,0,0,0,1.988-.98V0h1.008V-10.206h-1.008Zm-1.876-.07A1.968,1.968,0,0,1,158.2-2.9a1.987,1.987,0,0,1-1.932,2.17,1.943,1.943,0,0,1-1.9-2.184A1.931,1.931,0,0,1,156.268-5.054ZM163.856.168a2.98,2.98,0,0,0,3.08-3.052,2.983,2.983,0,0,0-3.08-3.066,2.983,2.983,0,0,0-3.08,3.066A2.98,2.98,0,0,0,163.856.168Zm0-5.222a2.011,2.011,0,0,1,2.044,2.17,2.014,2.014,0,0,1-2.044,2.156,2.014,2.014,0,0,1-2.044-2.156A2.019,2.019,0,0,1,163.856-5.054Zm7.42,5.222a2.98,2.98,0,0,0,3.08-3.052,2.983,2.983,0,0,0-3.08-3.066,2.983,2.983,0,0,0-3.08,3.066A2.98,2.98,0,0,0,171.276.168Zm0-5.222a2.011,2.011,0,0,1,2.044,2.17,2.014,2.014,0,0,1-2.044,2.156,2.014,2.014,0,0,1-2.044-2.156A2.019,2.019,0,0,1,171.276-5.054ZM175.98,0h1.008V-3.066a2.507,2.507,0,0,1,.336-1.568A.976.976,0,0,1,178.136-5a1.037,1.037,0,0,1,.588.2l.476-.91a2.129,2.129,0,0,0-.9-.238,1.615,1.615,0,0,0-1.316.77v-.63H175.98Zm7.294-4.9a1.676,1.676,0,0,0-1.6-1.05,1.562,1.562,0,0,0-1.694,1.624,1.262,1.262,0,0,0,.266.854,3.79,3.79,0,0,0,1.414.854c.546.238.938.42.938.966a.9.9,0,0,1-.952.924,1.315,1.315,0,0,1-1.176-.952l-.868.364a2.078,2.078,0,0,0,2.03,1.484,1.848,1.848,0,0,0,2-1.9,1.375,1.375,0,0,0-.308-.938,3.532,3.532,0,0,0-1.456-.9c-.658-.28-.938-.406-.938-.826a.642.642,0,0,1,.7-.658.891.891,0,0,1,.812.588ZM3.416,13.114V12.19H1.988V9.768a1.746,1.746,0,0,1,.126-.84.707.707,0,0,1,.644-.308,1.828,1.828,0,0,1,.658.126v-.98A1.948,1.948,0,0,0,2.7,7.64a1.808,1.808,0,0,0-1.162.378A2.01,2.01,0,0,0,.98,9.656V12.19H.42v.924H.98V18H1.988V13.114Zm3.7,5.054a2.98,2.98,0,0,0,3.08-3.052,2.983,2.983,0,0,0-3.08-3.066,2.983,2.983,0,0,0-3.08,3.066A2.98,2.98,0,0,0,7.112,18.168Zm0-5.222a2.011,2.011,0,0,1,2.044,2.17,2.047,2.047,0,1,1-4.088,0A2.019,2.019,0,0,1,7.112,12.946ZM11.816,18h1.008V14.934a2.507,2.507,0,0,1,.336-1.568A.976.976,0,0,1,13.972,13a1.037,1.037,0,0,1,.588.2l.476-.91a2.129,2.129,0,0,0-.9-.238,1.615,1.615,0,0,0-1.316.77v-.63H11.816ZM19.39,7.794V18H20.4V7.794ZM25.1,18.168a2.98,2.98,0,0,0,3.08-3.052,3.08,3.08,0,0,0-6.16,0A2.98,2.98,0,0,0,25.1,18.168Zm0-5.222a2.011,2.011,0,0,1,2.044,2.17,2.047,2.047,0,1,1-4.088,0A2.019,2.019,0,0,1,25.1,12.946ZM29.806,18h1.008V14.962a2.447,2.447,0,0,1,.42-1.568,1.27,1.27,0,0,1,1.022-.448,1.14,1.14,0,0,1,.952.42,1.708,1.708,0,0,1,.266,1.064V18h1.008V14.4a2.591,2.591,0,0,0-.336-1.554,1.971,1.971,0,0,0-1.666-.8,2.05,2.05,0,0,0-1.666.812V12.19H29.806Zm11.116-4.984a2.416,2.416,0,0,0-1.988-.966,2.865,2.865,0,0,0-1.988.784,3.047,3.047,0,0,0-.84,2.254,3.147,3.147,0,0,0,.84,2.3,2.783,2.783,0,0,0,1.988.784,2.451,2.451,0,0,0,1.988-.98v.84a2.7,2.7,0,0,1-.322,1.484,1.629,1.629,0,0,1-1.54.812,1.8,1.8,0,0,1-1.4-.56,1.829,1.829,0,0,1-.448-1.2h-.994a2.618,2.618,0,0,0,.756,1.876,2.877,2.877,0,0,0,2.072.784,2.827,2.827,0,0,0,2.324-1.078,3.655,3.655,0,0,0,.56-2.282V12.19H40.922Zm-1.876-.07a1.863,1.863,0,0,1,1.316.518,2.3,2.3,0,0,1,.616,1.638,2.355,2.355,0,0,1-.658,1.68,1.72,1.72,0,0,1-1.274.49A1.758,1.758,0,0,1,37.8,16.8a2.24,2.24,0,0,1-.658-1.708,2.212,2.212,0,0,1,.588-1.6A1.8,1.8,0,0,1,39.046,12.946Zm9.226,4.242a2.467,2.467,0,0,0,2.03.98,2.827,2.827,0,0,0,2.786-3.038,2.877,2.877,0,0,0-2.828-3.08A2.5,2.5,0,0,0,48.272,13V12.19H47.264v9.03h1.008Zm1.89.084a1.988,1.988,0,0,1-1.946-2.156,2.016,2.016,0,0,1,1.932-2.17,1.993,1.993,0,0,1,1.9,2.184A1.957,1.957,0,0,1,50.162,17.272Zm8.862-1.218a2.315,2.315,0,0,1-.6.8,1.766,1.766,0,0,1-1.19.42A1.861,1.861,0,0,1,55.384,15.3h4.522a3.9,3.9,0,0,0-.546-2.184,2.6,2.6,0,0,0-2.2-1.064,2.817,2.817,0,0,0-2.814,3.08,2.781,2.781,0,0,0,2.87,3.038,2.82,2.82,0,0,0,1.932-.714,3.476,3.476,0,0,0,.714-.938Zm-3.57-1.6a1.766,1.766,0,0,1,1.708-1.512,1.739,1.739,0,0,1,1.708,1.512ZM61.53,18h1.008V14.934a2.507,2.507,0,0,1,.336-1.568A.976.976,0,0,1,63.686,13a1.037,1.037,0,0,1,.588.2l.476-.91a2.129,2.129,0,0,0-.9-.238,1.615,1.615,0,0,0-1.316.77v-.63H61.53Zm4.228-5.81V18h1.008V12.19Zm-.21-2.2a.714.714,0,1,0,.714-.714A.717.717,0,0,0,65.548,9.992Zm5.922,8.176a2.98,2.98,0,0,0,3.08-3.052,3.08,3.08,0,0,0-6.16,0A2.98,2.98,0,0,0,71.47,18.168Zm0-5.222a2.011,2.011,0,0,1,2.044,2.17,2.047,2.047,0,1,1-4.088,0A2.019,2.019,0,0,1,71.47,12.946Zm9.156.07a2.4,2.4,0,0,0-1.988-.966,2.792,2.792,0,0,0-2.828,3.038,2.813,2.813,0,0,0,2.828,3.08,2.451,2.451,0,0,0,1.988-.98V18h1.008V7.794H80.626Zm-1.876-.07A1.968,1.968,0,0,1,80.682,15.1a1.987,1.987,0,0,1-1.932,2.17,1.943,1.943,0,0,1-1.9-2.184A1.931,1.931,0,0,1,78.75,12.946Zm8.092.154a1.676,1.676,0,0,0-1.6-1.05,1.562,1.562,0,0,0-1.694,1.624,1.262,1.262,0,0,0,.266.854,3.79,3.79,0,0,0,1.414.854c.546.238.938.42.938.966a.9.9,0,0,1-.952.924,1.315,1.315,0,0,1-1.176-.952l-.868.364a2.078,2.078,0,0,0,2.03,1.484,1.848,1.848,0,0,0,2-1.9,1.375,1.375,0,0,0-.308-.938,3.532,3.532,0,0,0-1.456-.9c-.658-.28-.938-.406-.938-.826a.642.642,0,0,1,.7-.658.891.891,0,0,1,.812.588ZM94.7,18.168a2.98,2.98,0,0,0,3.08-3.052,3.08,3.08,0,0,0-6.16,0A2.98,2.98,0,0,0,94.7,18.168Zm0-5.222a2.011,2.011,0,0,1,2.044,2.17,2.047,2.047,0,1,1-4.088,0A2.019,2.019,0,0,1,94.7,12.946Zm7.168.168V12.19h-1.428V9.768a1.746,1.746,0,0,1,.126-.84.707.707,0,0,1,.644-.308,1.828,1.828,0,0,1,.658.126v-.98a1.948,1.948,0,0,0-.714-.126,1.808,1.808,0,0,0-1.162.378,2.01,2.01,0,0,0-.56,1.638V12.19h-.56v.924h.56V18h1.008V13.114Zm6.37,0V12.19h-1.008v-2.1h-1.008v2.1H105.6v.924h.616V18h1.008V13.114Zm1.036-.924V18h1.008V12.19Zm-.21-2.2a.714.714,0,1,0,.714-.714A.717.717,0,0,0,109.06,9.992ZM112.266,18h1.008V14.836c0-.7.126-1.89,1.274-1.89,1.064,0,1.05,1.2,1.05,1.61V18h1.008V14.766c0-.7.126-1.82,1.288-1.82.952,0,1.036.868,1.036,1.526V18h1.008V14.318c0-.826-.168-2.268-1.89-2.268a1.939,1.939,0,0,0-1.75.938,1.74,1.74,0,0,0-1.582-.938,1.688,1.688,0,0,0-1.442.756V12.19h-1.008Zm13.986-1.946a2.315,2.315,0,0,1-.6.8,1.766,1.766,0,0,1-1.19.42,1.861,1.861,0,0,1-1.848-1.974h4.522a3.9,3.9,0,0,0-.546-2.184,2.6,2.6,0,0,0-2.2-1.064,2.817,2.817,0,0,0-2.814,3.08,2.781,2.781,0,0,0,2.87,3.038,2.82,2.82,0,0,0,1.932-.714,3.476,3.476,0,0,0,.714-.938Zm-3.57-1.6a1.766,1.766,0,0,1,1.708-1.512,1.739,1.739,0,0,1,1.708,1.512Zm6.02,2.982a.7.7,0,1,0,.7-.7A.711.711,0,0,0,128.7,17.44Z" transform="translate(943.607 651.968)" fill="#414141"/>
    <path id="Path_375" data-name="Path 375" d="M1.2-9.338V0H2.24V-4.06h.91c2.128,0,2.954-1.3,2.954-2.618a2.6,2.6,0,0,0-.854-2A3.374,3.374,0,0,0,2.9-9.338Zm1.036.98h.77c.672,0,2.058.14,2.058,1.624,0,1.078-.742,1.694-1.974,1.694H2.24Zm5.18-1.848V0H8.428V-10.206Zm7.308,8.26a2.315,2.315,0,0,1-.6.8,1.766,1.766,0,0,1-1.19.42A1.861,1.861,0,0,1,11.088-2.7H15.61a3.9,3.9,0,0,0-.546-2.184,2.6,2.6,0,0,0-2.2-1.064,2.817,2.817,0,0,0-2.814,3.08A2.781,2.781,0,0,0,12.922.168a2.82,2.82,0,0,0,1.932-.714,3.476,3.476,0,0,0,.714-.938Zm-3.57-1.6a1.766,1.766,0,0,1,1.708-1.512,1.739,1.739,0,0,1,1.708,1.512ZM21.686-4.984A2.4,2.4,0,0,0,19.7-5.95,2.792,2.792,0,0,0,16.87-2.912,2.813,2.813,0,0,0,19.7.168a2.451,2.451,0,0,0,1.988-.98V0h1.008V-5.81H21.686Zm-1.876-.07A1.968,1.968,0,0,1,21.742-2.9,1.987,1.987,0,0,1,19.81-.728a1.943,1.943,0,0,1-1.9-2.184A1.931,1.931,0,0,1,19.81-5.054ZM27.9-4.9a1.676,1.676,0,0,0-1.6-1.05,1.562,1.562,0,0,0-1.694,1.624,1.262,1.262,0,0,0,.266.854,3.79,3.79,0,0,0,1.414.854c.546.238.938.42.938.966a.9.9,0,0,1-.952.924A1.315,1.315,0,0,1,25.1-1.68l-.868.364A2.078,2.078,0,0,0,26.264.168a1.848,1.848,0,0,0,2-1.9,1.375,1.375,0,0,0-.308-.938,3.532,3.532,0,0,0-1.456-.9c-.658-.28-.938-.406-.938-.826a.642.642,0,0,1,.7-.658.891.891,0,0,1,.812.588Zm6.1,2.954a2.315,2.315,0,0,1-.6.8,1.766,1.766,0,0,1-1.19.42A1.861,1.861,0,0,1,30.366-2.7h4.522a3.9,3.9,0,0,0-.546-2.184,2.6,2.6,0,0,0-2.2-1.064A2.817,2.817,0,0,0,29.33-2.87,2.781,2.781,0,0,0,32.2.168a2.82,2.82,0,0,0,1.932-.714,3.476,3.476,0,0,0,.714-.938Zm-3.57-1.6a1.766,1.766,0,0,1,1.708-1.512,1.739,1.739,0,0,1,1.708,1.512ZM45.108-8.036a2.824,2.824,0,0,0-.91-1.036,2.53,2.53,0,0,0-1.5-.42,2.413,2.413,0,0,0-2.618,2.408,1.939,1.939,0,0,0,.644,1.526,4.134,4.134,0,0,0,1.246.77l.84.392a4.074,4.074,0,0,1,1.12.644,1.393,1.393,0,0,1,.462,1.092A1.767,1.767,0,0,1,42.518-.812a1.785,1.785,0,0,1-1.344-.518,2.2,2.2,0,0,1-.56-1.19l-1.008.28a3.385,3.385,0,0,0,.868,1.652A2.785,2.785,0,0,0,42.5.168,2.8,2.8,0,0,0,45.458-2.7,2.247,2.247,0,0,0,44.786-4.4a4.536,4.536,0,0,0-1.442-.882l-.9-.392a3.049,3.049,0,0,1-.98-.588.979.979,0,0,1-.35-.812,1.433,1.433,0,0,1,1.568-1.442,1.68,1.68,0,0,1,1.05.322,2.25,2.25,0,0,1,.546.7ZM47.194-5.81V0H48.2V-5.81Zm-.21-2.2a.717.717,0,0,0,.714.714.717.717,0,0,0,.714-.714.717.717,0,0,0-.714-.714A.717.717,0,0,0,46.984-8.008Zm7.658,3.024a2.416,2.416,0,0,0-1.988-.966,2.865,2.865,0,0,0-1.988.784,3.047,3.047,0,0,0-.84,2.254,3.146,3.146,0,0,0,.84,2.3,2.783,2.783,0,0,0,1.988.784,2.451,2.451,0,0,0,1.988-.98v.84a2.7,2.7,0,0,1-.322,1.484,1.629,1.629,0,0,1-1.54.812,1.8,1.8,0,0,1-1.4-.56,1.829,1.829,0,0,1-.448-1.2h-.994a2.618,2.618,0,0,0,.756,1.876,2.877,2.877,0,0,0,2.072.784A2.827,2.827,0,0,0,55.09,2.142,3.655,3.655,0,0,0,55.65-.14V-5.81H54.642Zm-1.876-.07a1.863,1.863,0,0,1,1.316.518A2.3,2.3,0,0,1,54.7-2.9a2.355,2.355,0,0,1-.658,1.68,1.72,1.72,0,0,1-1.274.49A1.758,1.758,0,0,1,51.52-1.2a2.24,2.24,0,0,1-.658-1.708,2.212,2.212,0,0,1,.588-1.6A1.8,1.8,0,0,1,52.766-5.054ZM57.638,0h1.008V-3.038a2.447,2.447,0,0,1,.42-1.568,1.27,1.27,0,0,1,1.022-.448,1.14,1.14,0,0,1,.952.42,1.708,1.708,0,0,1,.266,1.064V0h1.008V-3.6a2.591,2.591,0,0,0-.336-1.554,1.971,1.971,0,0,0-1.666-.8,2.05,2.05,0,0,0-1.666.812V-5.81H57.638ZM69.692-4.886V-5.81H68.684v-2.1H67.676v2.1H67.06v.924h.616V0h1.008V-4.886ZM70.728,0h1.008V-3.038a2.447,2.447,0,0,1,.42-1.568,1.27,1.27,0,0,1,1.022-.448,1.14,1.14,0,0,1,.952.42A1.708,1.708,0,0,1,74.4-3.57V0H75.4V-3.6a2.591,2.591,0,0,0-.336-1.554,1.971,1.971,0,0,0-1.666-.8,2.05,2.05,0,0,0-1.666.812v-5.068H70.728ZM81.564-1.946a2.315,2.315,0,0,1-.6.8,1.766,1.766,0,0,1-1.19.42A1.861,1.861,0,0,1,77.924-2.7h4.522A3.9,3.9,0,0,0,81.9-4.886,2.6,2.6,0,0,0,79.7-5.95a2.817,2.817,0,0,0-2.814,3.08A2.781,2.781,0,0,0,79.758.168,2.82,2.82,0,0,0,81.69-.546a3.476,3.476,0,0,0,.714-.938Zm-3.57-1.6A1.766,1.766,0,0,1,79.7-5.054,1.739,1.739,0,0,1,81.41-3.542Zm10.43,2.73a2.467,2.467,0,0,0,2.03.98A2.827,2.827,0,0,0,93.24-2.87a2.877,2.877,0,0,0-2.828-3.08A2.5,2.5,0,0,0,88.424-5V-5.81H87.416V3.22h1.008Zm1.89.084a1.988,1.988,0,0,1-1.946-2.156A2.016,2.016,0,0,1,90.3-5.054,1.993,1.993,0,0,1,92.2-2.87,1.957,1.957,0,0,1,90.314-.728Zm9-4.256a2.4,2.4,0,0,0-1.988-.966A2.792,2.792,0,0,0,94.5-2.912,2.813,2.813,0,0,0,97.328.168a2.451,2.451,0,0,0,1.988-.98V0h1.008V-5.81H99.316Zm-1.876-.07A1.968,1.968,0,0,1,99.372-2.9,1.987,1.987,0,0,1,97.44-.728a1.943,1.943,0,0,1-1.9-2.184A1.931,1.931,0,0,1,97.44-5.054Zm5.88,4.242a2.467,2.467,0,0,0,2.03.98,2.827,2.827,0,0,0,2.786-3.038,2.877,2.877,0,0,0-2.828-3.08A2.5,2.5,0,0,0,103.32-5V-5.81h-1.008V3.22h1.008Zm1.89.084a1.988,1.988,0,0,1-1.946-2.156,2.016,2.016,0,0,1,1.932-2.17,1.993,1.993,0,0,1,1.9,2.184A1.957,1.957,0,0,1,105.21-.728Zm8.862-1.218a2.315,2.315,0,0,1-.6.8,1.766,1.766,0,0,1-1.19.42A1.861,1.861,0,0,1,110.432-2.7h4.522a3.9,3.9,0,0,0-.546-2.184,2.6,2.6,0,0,0-2.2-1.064A2.817,2.817,0,0,0,109.4-2.87a2.781,2.781,0,0,0,2.87,3.038A2.82,2.82,0,0,0,114.2-.546a3.476,3.476,0,0,0,.714-.938Zm-3.57-1.6a1.766,1.766,0,0,1,1.708-1.512,1.739,1.739,0,0,1,1.708,1.512ZM116.578,0h1.008V-3.066a2.507,2.507,0,0,1,.336-1.568A.976.976,0,0,1,118.734-5a1.037,1.037,0,0,1,.588.2l.476-.91a2.129,2.129,0,0,0-.9-.238,1.615,1.615,0,0,0-1.316.77v-.63h-1.008Zm6.734-5.81L126.168.406l1.792-4.34,1.792,4.34,2.884-6.216h-1.12L129.78-1.862l-1.806-4.4-1.82,4.4L124.432-5.81ZM136.5.168a2.98,2.98,0,0,0,3.08-3.052A2.983,2.983,0,0,0,136.5-5.95a2.983,2.983,0,0,0-3.08,3.066A2.98,2.98,0,0,0,136.5.168Zm0-5.222a2.011,2.011,0,0,1,2.044,2.17A2.014,2.014,0,0,1,136.5-.728a2.014,2.014,0,0,1-2.044-2.156A2.019,2.019,0,0,1,136.5-5.054ZM141.2,0h1.008V-3.066a2.507,2.507,0,0,1,.336-1.568A.976.976,0,0,1,143.36-5a1.037,1.037,0,0,1,.588.2l.476-.91a2.129,2.129,0,0,0-.9-.238,1.615,1.615,0,0,0-1.316.77v-.63H141.2Zm4.228-10.206V0h1.008V-2.394l.252-.252L149.016,0h1.316l-2.94-3.318,2.492-2.492h-1.316L146.44-3.654v-6.552Zm13.79,5.222a2.4,2.4,0,0,0-1.988-.966,2.792,2.792,0,0,0-2.828,3.038,2.813,2.813,0,0,0,2.828,3.08,2.451,2.451,0,0,0,1.988-.98V0h1.008V-5.81h-1.008Zm-1.876-.07A1.968,1.968,0,0,1,159.278-2.9a1.987,1.987,0,0,1-1.932,2.17,1.943,1.943,0,0,1-1.9-2.184A1.931,1.931,0,0,1,157.346-5.054ZM162.218,0h1.008V-3.038a2.447,2.447,0,0,1,.42-1.568,1.27,1.27,0,0,1,1.022-.448,1.14,1.14,0,0,1,.952.42,1.708,1.708,0,0,1,.266,1.064V0h1.008V-3.6a2.591,2.591,0,0,0-.336-1.554,1.971,1.971,0,0,0-1.666-.8,2.05,2.05,0,0,0-1.666.812V-5.81h-1.008Zm11.116-4.984a2.4,2.4,0,0,0-1.988-.966,2.792,2.792,0,0,0-2.828,3.038,2.813,2.813,0,0,0,2.828,3.08,2.451,2.451,0,0,0,1.988-.98V0h1.008V-10.206h-1.008Zm-1.876-.07A1.968,1.968,0,0,1,173.39-2.9a1.987,1.987,0,0,1-1.932,2.17,1.943,1.943,0,0,1-1.9-2.184A1.931,1.931,0,0,1,171.458-5.054ZM1.96,17.188a2.467,2.467,0,0,0,2.03.98A2.827,2.827,0,0,0,6.776,15.13a2.877,2.877,0,0,0-2.828-3.08A2.5,2.5,0,0,0,1.96,13V12.19H.952v9.03H1.96Zm1.89.084A1.988,1.988,0,0,1,1.9,15.116a2.016,2.016,0,0,1,1.932-2.17,1.993,1.993,0,0,1,1.9,2.184A1.957,1.957,0,0,1,3.85,17.272Zm9-4.256a2.4,2.4,0,0,0-1.988-.966,2.792,2.792,0,0,0-2.828,3.038,2.813,2.813,0,0,0,2.828,3.08,2.451,2.451,0,0,0,1.988-.98V18H13.86V12.19H12.852Zm-1.876-.07A1.968,1.968,0,0,1,12.908,15.1a1.987,1.987,0,0,1-1.932,2.17,1.943,1.943,0,0,1-1.9-2.184A1.931,1.931,0,0,1,10.976,12.946Zm4.858,8.274h1.12l4.27-9.03H20.1l-1.89,4.158L16.156,12.19H15.008l2.674,5.264Zm11.928-8.106V12.19H26.754v-2.1H25.746v2.1H25.13v.924h.616V18h1.008V13.114ZM28.8,18h1.008V14.962a2.447,2.447,0,0,1,.42-1.568,1.27,1.27,0,0,1,1.022-.448,1.14,1.14,0,0,1,.952.42,1.708,1.708,0,0,1,.266,1.064V18h1.008V14.4a2.591,2.591,0,0,0-.336-1.554,1.971,1.971,0,0,0-1.666-.8,2.05,2.05,0,0,0-1.666.812V7.794H28.8Zm10.836-1.946a2.315,2.315,0,0,1-.6.8,1.766,1.766,0,0,1-1.19.42A1.861,1.861,0,0,1,35.994,15.3h4.522a3.9,3.9,0,0,0-.546-2.184,2.6,2.6,0,0,0-2.2-1.064,2.817,2.817,0,0,0-2.814,3.08,2.781,2.781,0,0,0,2.87,3.038,2.82,2.82,0,0,0,1.932-.714,3.476,3.476,0,0,0,.714-.938Zm-3.57-1.6a1.766,1.766,0,0,1,1.708-1.512,1.739,1.739,0,0,1,1.708,1.512ZM47.95,13.114V12.19H46.522V9.768a1.746,1.746,0,0,1,.126-.84.707.707,0,0,1,.644-.308,1.828,1.828,0,0,1,.658.126v-.98a1.948,1.948,0,0,0-.714-.126,1.808,1.808,0,0,0-1.162.378,2.01,2.01,0,0,0-.56,1.638V12.19h-.56v.924h.56V18h1.008V13.114Zm5.292,2.94a2.315,2.315,0,0,1-.6.8,1.766,1.766,0,0,1-1.19.42A1.861,1.861,0,0,1,49.6,15.3h4.522a3.9,3.9,0,0,0-.546-2.184,2.6,2.6,0,0,0-2.2-1.064,2.817,2.817,0,0,0-2.814,3.08,2.781,2.781,0,0,0,2.87,3.038,2.82,2.82,0,0,0,1.932-.714,3.476,3.476,0,0,0,.714-.938Zm-3.57-1.6a1.766,1.766,0,0,1,1.708-1.512,1.739,1.739,0,0,1,1.708,1.512Zm10.388,1.6a2.315,2.315,0,0,1-.6.8,1.766,1.766,0,0,1-1.19.42A1.861,1.861,0,0,1,56.42,15.3h4.522a3.9,3.9,0,0,0-.546-2.184,2.6,2.6,0,0,0-2.2-1.064,2.817,2.817,0,0,0-2.814,3.08,2.781,2.781,0,0,0,2.87,3.038,2.82,2.82,0,0,0,1.932-.714,3.476,3.476,0,0,0,.714-.938Zm-3.57-1.6A1.766,1.766,0,0,1,58.2,12.946a1.739,1.739,0,0,1,1.708,1.512Zm9.3-1.358a1.676,1.676,0,0,0-1.6-1.05A1.562,1.562,0,0,0,62.5,13.674a1.262,1.262,0,0,0,.266.854,3.79,3.79,0,0,0,1.414.854c.546.238.938.42.938.966a.9.9,0,0,1-.952.924,1.315,1.315,0,0,1-1.176-.952l-.868.364a2.078,2.078,0,0,0,2.03,1.484,1.848,1.848,0,0,0,2-1.9,1.375,1.375,0,0,0-.308-.938,3.532,3.532,0,0,0-1.456-.9c-.658-.28-.938-.406-.938-.826a.642.642,0,0,1,.7-.658.891.891,0,0,1,.812.588Zm1.736,4.34a.7.7,0,1,0,.7-.7A.711.711,0,0,0,67.522,17.44Z" transform="translate(943.607 795.615)" fill="#414141"/>
    <path id="Path_373" data-name="Path 373" d="M7.448,0H8.6L4.41-9.786.112,0H1.26L2.38-2.632H6.356ZM2.786-3.612l1.6-3.738L5.95-3.612ZM14.322-4.984a2.416,2.416,0,0,0-1.988-.966,2.865,2.865,0,0,0-1.988.784,3.047,3.047,0,0,0-.84,2.254,3.147,3.147,0,0,0,.84,2.3,2.783,2.783,0,0,0,1.988.784,2.451,2.451,0,0,0,1.988-.98v.84A2.7,2.7,0,0,1,14,1.512a1.629,1.629,0,0,1-1.54.812,1.8,1.8,0,0,1-1.4-.56,1.829,1.829,0,0,1-.448-1.2H9.618a2.618,2.618,0,0,0,.756,1.876,2.877,2.877,0,0,0,2.072.784A2.827,2.827,0,0,0,14.77,2.142,3.655,3.655,0,0,0,15.33-.14V-5.81H14.322Zm-1.876-.07a1.863,1.863,0,0,1,1.316.518A2.3,2.3,0,0,1,14.378-2.9a2.355,2.355,0,0,1-.658,1.68,1.72,1.72,0,0,1-1.274.49A1.758,1.758,0,0,1,11.2-1.2a2.24,2.24,0,0,1-.658-1.708,2.212,2.212,0,0,1,.588-1.6A1.8,1.8,0,0,1,12.446-5.054Zm5,5.054h1.008V-3.066a2.507,2.507,0,0,1,.336-1.568A.976.976,0,0,1,19.6-5a1.037,1.037,0,0,1,.588.2l.476-.91a2.129,2.129,0,0,0-.9-.238,1.615,1.615,0,0,0-1.316.77v-.63H17.444Zm8.33-1.946a2.315,2.315,0,0,1-.6.8,1.766,1.766,0,0,1-1.19.42A1.861,1.861,0,0,1,22.134-2.7h4.522a3.9,3.9,0,0,0-.546-2.184,2.6,2.6,0,0,0-2.2-1.064A2.817,2.817,0,0,0,21.1-2.87,2.781,2.781,0,0,0,23.968.168,2.82,2.82,0,0,0,25.9-.546a3.476,3.476,0,0,0,.714-.938Zm-3.57-1.6a1.766,1.766,0,0,1,1.708-1.512A1.739,1.739,0,0,1,25.62-3.542Zm10.514,1.6a2.315,2.315,0,0,1-.6.8,1.766,1.766,0,0,1-1.19.42A1.861,1.861,0,0,1,29.078-2.7H33.6a3.9,3.9,0,0,0-.546-2.184,2.6,2.6,0,0,0-2.2-1.064,2.817,2.817,0,0,0-2.814,3.08A2.781,2.781,0,0,0,30.912.168a2.82,2.82,0,0,0,1.932-.714,3.476,3.476,0,0,0,.714-.938Zm-3.57-1.6a1.766,1.766,0,0,1,1.708-1.512,1.739,1.739,0,0,1,1.708,1.512ZM35.35,0h1.008V-3.164c0-.7.126-1.89,1.274-1.89,1.064,0,1.05,1.2,1.05,1.61V0H39.69V-3.234c0-.7.126-1.82,1.288-1.82.952,0,1.036.868,1.036,1.526V0h1.008V-3.682c0-.826-.168-2.268-1.89-2.268a1.939,1.939,0,0,0-1.75.938A1.74,1.74,0,0,0,37.8-5.95a1.688,1.688,0,0,0-1.442.756V-5.81H35.35ZM49.462-1.946a2.315,2.315,0,0,1-.6.8,1.766,1.766,0,0,1-1.19.42A1.861,1.861,0,0,1,45.822-2.7h4.522A3.9,3.9,0,0,0,49.8-4.886,2.6,2.6,0,0,0,47.6-5.95a2.817,2.817,0,0,0-2.814,3.08A2.781,2.781,0,0,0,47.656.168a2.82,2.82,0,0,0,1.932-.714,3.476,3.476,0,0,0,.714-.938Zm-3.57-1.6A1.766,1.766,0,0,1,47.6-5.054a1.739,1.739,0,0,1,1.708,1.512ZM52.094,0H53.1V-3.038a2.447,2.447,0,0,1,.42-1.568,1.27,1.27,0,0,1,1.022-.448,1.14,1.14,0,0,1,.952.42,1.708,1.708,0,0,1,.266,1.064V0H56.77V-3.6a2.591,2.591,0,0,0-.336-1.554,1.971,1.971,0,0,0-1.666-.8,2.05,2.05,0,0,0-1.666.812V-5.81H52.094Zm8.834-4.886V-5.81H59.92v-2.1H58.912v2.1H58.3v.924h.616V0H59.92V-4.886Zm4.886-4.452V0H66.85V-4.06h.91c2.128,0,2.954-1.3,2.954-2.618a2.6,2.6,0,0,0-.854-2,3.374,3.374,0,0,0-2.352-.658Zm1.036.98h.77c.672,0,2.058.14,2.058,1.624,0,1.078-.742,1.694-1.974,1.694H66.85Zm9.478,3.374A2.4,2.4,0,0,0,74.34-5.95a2.792,2.792,0,0,0-2.828,3.038A2.813,2.813,0,0,0,74.34.168a2.451,2.451,0,0,0,1.988-.98V0h1.008V-5.81H76.328Zm-1.876-.07A1.968,1.968,0,0,1,76.384-2.9a1.987,1.987,0,0,1-1.932,2.17,1.943,1.943,0,0,1-1.9-2.184A1.931,1.931,0,0,1,74.452-5.054ZM80.458-.812a2.467,2.467,0,0,0,2.03.98A2.827,2.827,0,0,0,85.274-2.87a2.877,2.877,0,0,0-2.828-3.08A2.5,2.5,0,0,0,80.458-5V-5.81H79.45V3.22h1.008Zm1.89.084A1.988,1.988,0,0,1,80.4-2.884a2.016,2.016,0,0,1,1.932-2.17,1.993,1.993,0,0,1,1.9,2.184A1.957,1.957,0,0,1,82.348-.728Zm8.988-1.218a2.315,2.315,0,0,1-.6.8,1.766,1.766,0,0,1-1.19.42A1.861,1.861,0,0,1,87.7-2.7h4.522a3.9,3.9,0,0,0-.546-2.184,2.6,2.6,0,0,0-2.2-1.064A2.817,2.817,0,0,0,86.66-2.87,2.781,2.781,0,0,0,89.53.168a2.82,2.82,0,0,0,1.932-.714,3.476,3.476,0,0,0,.714-.938Zm-3.57-1.6a1.766,1.766,0,0,1,1.708-1.512,1.739,1.739,0,0,1,1.708,1.512ZM93.968,0h1.008V-3.066a2.507,2.507,0,0,1,.336-1.568A.976.976,0,0,1,96.124-5a1.037,1.037,0,0,1,.588.2l.476-.91a2.129,2.129,0,0,0-.9-.238,1.615,1.615,0,0,0-1.316.77v-.63H93.968Zm3.948-5.81L100.772.406l1.792-4.34,1.792,4.34L107.24-5.81h-1.12l-1.736,3.948-1.806-4.4-1.82,4.4L99.036-5.81ZM111.23.168a2.98,2.98,0,0,0,3.08-3.052,2.983,2.983,0,0,0-3.08-3.066,2.983,2.983,0,0,0-3.08,3.066A2.98,2.98,0,0,0,111.23.168Zm0-5.222a2.011,2.011,0,0,1,2.044,2.17A2.014,2.014,0,0,1,111.23-.728a2.014,2.014,0,0,1-2.044-2.156A2.019,2.019,0,0,1,111.23-5.054ZM116.06,0h1.008V-3.066a2.507,2.507,0,0,1,.336-1.568A.976.976,0,0,1,118.216-5a1.037,1.037,0,0,1,.588.2l.476-.91a2.129,2.129,0,0,0-.9-.238,1.615,1.615,0,0,0-1.316.77v-.63H116.06Zm4.354-10.206V0h1.008V-2.394l.252-.252L124,0h1.316l-2.94-3.318,2.492-2.492H123.55l-2.128,2.156v-6.552Z" transform="translate(965.195 865.363)" fill="#fff"/>
    <path id="Path_374" data-name="Path 374" d="M1.118-8.671V0H2.08V-3.77h.845C4.9-3.77,5.668-4.979,5.668-6.2A2.416,2.416,0,0,0,4.875-8.06a3.133,3.133,0,0,0-2.184-.611Zm.962.91H2.8c.624,0,1.911.13,1.911,1.508,0,1-.689,1.573-1.833,1.573H2.08Zm8.8,3.133a2.232,2.232,0,0,0-1.846-.9A2.593,2.593,0,0,0,6.409-2.7,2.612,2.612,0,0,0,9.035.156a2.276,2.276,0,0,0,1.846-.91V0h.936V-5.4h-.936ZM9.139-4.693a1.827,1.827,0,0,1,1.794,2A1.845,1.845,0,0,1,9.139-.676,1.8,1.8,0,0,1,7.371-2.7,1.793,1.793,0,0,1,9.139-4.693ZM13.767,2.99h1.04L18.772-5.4h-1.04L15.977-1.534,14.066-5.4H13L15.483-.507Zm14.6-10.452a2.711,2.711,0,0,0-.832-.962,2.013,2.013,0,0,0-.988-.364V-9.919h-.78v1.131a2.185,2.185,0,0,0-2.028,2.21,1.782,1.782,0,0,0,.6,1.417,4.862,4.862,0,0,0,1.43.845V-.754a1.479,1.479,0,0,1-1.014-.481,1.959,1.959,0,0,1-.52-1.105l-.936.26A3.25,3.25,0,0,0,24.1-.546a2.526,2.526,0,0,0,1.664.7V1.313h.78V.1a2.572,2.572,0,0,0,2.132-2.613,2.177,2.177,0,0,0-.611-1.573,4.187,4.187,0,0,0-1.521-.91V-7.878a1.087,1.087,0,0,1,.559.273,2.263,2.263,0,0,1,.494.65Zm-1.82,3.51a2.488,2.488,0,0,1,.728.455A1.4,1.4,0,0,1,27.69-2.47,1.7,1.7,0,0,1,26.546-.806Zm-.78-1.391a2.4,2.4,0,0,1-.741-.468,1.023,1.023,0,0,1-.325-.78,1.248,1.248,0,0,1,1.066-1.287ZM33.332,0h.962V-8.671H32.383l-.507.91h1.456Zm8.723-8.671H38.61L37.349-4.485a2.831,2.831,0,0,1,1.677-.6,2.055,2.055,0,0,1,2.132,2.132A2.154,2.154,0,0,1,39.026-.728a2.127,2.127,0,0,1-1.4-.52,2.017,2.017,0,0,1-.585-.7L36.27-1.4a3.609,3.609,0,0,0,.754.884,2.939,2.939,0,0,0,1.937.676,3.034,3.034,0,0,0,3.159-3.12,2.817,2.817,0,0,0-2.86-3,2.361,2.361,0,0,0-.546.052l.559-1.872h2.782ZM47.1.156a2.737,2.737,0,0,0,2.223-1.3,5.631,5.631,0,0,0,.871-3.185,5.631,5.631,0,0,0-.871-3.185,2.737,2.737,0,0,0-2.223-1.3,2.737,2.737,0,0,0-2.223,1.3,5.631,5.631,0,0,0-.871,3.185,5.631,5.631,0,0,0,.871,3.185A2.737,2.737,0,0,0,47.1.156Zm0-8.086a1.81,1.81,0,0,1,1.495.962,5.059,5.059,0,0,1,.637,2.639,5.059,5.059,0,0,1-.637,2.639A1.81,1.81,0,0,1,47.1-.728a1.81,1.81,0,0,1-1.5-.962,5.059,5.059,0,0,1-.637-2.639A5.059,5.059,0,0,1,45.6-6.968,1.81,1.81,0,0,1,47.1-7.93Z" transform="translate(965.195 919.165)" fill="#fff"/>
    <path id="Path_378" data-name="Path 378" d="M-178.864-8.568a4.4,4.4,0,0,0-2.758-.924,4.747,4.747,0,0,0-4.886,4.858,4.721,4.721,0,0,0,4.83,4.8,4.862,4.862,0,0,0,2.814-.91V-2.03a4.247,4.247,0,0,1-1.078.784,3.882,3.882,0,0,1-1.736.434,3.737,3.737,0,0,1-3.766-3.808,3.767,3.767,0,0,1,3.752-3.892,3.978,3.978,0,0,1,1.61.364,4.6,4.6,0,0,1,1.218.868Zm6.314,3.584a2.4,2.4,0,0,0-1.988-.966,2.792,2.792,0,0,0-2.828,3.038,2.813,2.813,0,0,0,2.828,3.08,2.451,2.451,0,0,0,1.988-.98V0h1.008V-5.81h-1.008Zm-1.876-.07A1.968,1.968,0,0,1-172.494-2.9a1.987,1.987,0,0,1-1.932,2.17,1.943,1.943,0,0,1-1.9-2.184A1.931,1.931,0,0,1-174.426-5.054Zm5,5.054h1.008V-3.038A2.447,2.447,0,0,1-168-4.606a1.27,1.27,0,0,1,1.022-.448,1.14,1.14,0,0,1,.952.42,1.708,1.708,0,0,1,.266,1.064V0h1.008V-3.6a2.591,2.591,0,0,0-.336-1.554,1.971,1.971,0,0,0-1.666-.8,2.05,2.05,0,0,0-1.666.812V-5.81h-1.008Zm12.306-4.886V-5.81h-1.008v-2.1h-1.008v2.1h-.616v.924h.616V0h1.008V-4.886ZM-155.96,0h1.008V-3.038a2.447,2.447,0,0,1,.42-1.568,1.27,1.27,0,0,1,1.022-.448,1.14,1.14,0,0,1,.952.42,1.708,1.708,0,0,1,.266,1.064V0h1.008V-3.6a2.591,2.591,0,0,0-.336-1.554,1.971,1.971,0,0,0-1.666-.8,2.05,2.05,0,0,0-1.666.812v-5.068h-1.008ZM-145-1.946a2.315,2.315,0,0,1-.6.8,1.766,1.766,0,0,1-1.19.42A1.861,1.861,0,0,1-148.638-2.7h4.522a3.9,3.9,0,0,0-.546-2.184,2.6,2.6,0,0,0-2.2-1.064,2.817,2.817,0,0,0-2.814,3.08A2.781,2.781,0,0,0-146.8.168a2.82,2.82,0,0,0,1.932-.714,3.476,3.476,0,0,0,.714-.938Zm-3.57-1.6a1.766,1.766,0,0,1,1.708-1.512,1.739,1.739,0,0,1,1.708,1.512Zm14.126-1.442a2.4,2.4,0,0,0-1.988-.966,2.792,2.792,0,0,0-2.828,3.038A2.813,2.813,0,0,0-136.43.168a2.451,2.451,0,0,0,1.988-.98V0h1.008V-10.206h-1.008Zm-1.876-.07A1.968,1.968,0,0,1-134.386-2.9a1.987,1.987,0,0,1-1.932,2.17,1.943,1.943,0,0,1-1.9-2.184A1.931,1.931,0,0,1-136.318-5.054ZM-128.6.168a2.98,2.98,0,0,0,3.08-3.052A2.983,2.983,0,0,0-128.6-5.95a2.983,2.983,0,0,0-3.08,3.066A2.98,2.98,0,0,0-128.6.168Zm0-5.222a2.011,2.011,0,0,1,2.044,2.17A2.014,2.014,0,0,1-128.6-.728a2.014,2.014,0,0,1-2.044-2.156A2.019,2.019,0,0,1-128.6-5.054Zm9.282.07a2.416,2.416,0,0,0-1.988-.966,2.865,2.865,0,0,0-1.988.784,3.047,3.047,0,0,0-.84,2.254,3.147,3.147,0,0,0,.84,2.3,2.783,2.783,0,0,0,1.988.784,2.451,2.451,0,0,0,1.988-.98v.84a2.7,2.7,0,0,1-.322,1.484,1.629,1.629,0,0,1-1.54.812,1.8,1.8,0,0,1-1.4-.56,1.829,1.829,0,0,1-.448-1.2h-.994a2.618,2.618,0,0,0,.756,1.876,2.877,2.877,0,0,0,2.072.784,2.827,2.827,0,0,0,2.324-1.078,3.655,3.655,0,0,0,.56-2.282V-5.81h-1.008Zm-1.876-.07a1.863,1.863,0,0,1,1.316.518,2.3,2.3,0,0,1,.616,1.638,2.355,2.355,0,0,1-.658,1.68,1.72,1.72,0,0,1-1.274.49,1.758,1.758,0,0,1-1.246-.476,2.24,2.24,0,0,1-.658-1.708,2.212,2.212,0,0,1,.588-1.6A1.8,1.8,0,0,1-121.2-5.054Zm11.69.154a1.676,1.676,0,0,0-1.6-1.05A1.562,1.562,0,0,0-112.8-4.326a1.262,1.262,0,0,0,.266.854,3.79,3.79,0,0,0,1.414.854c.546.238.938.42.938.966a.9.9,0,0,1-.952.924,1.315,1.315,0,0,1-1.176-.952l-.868.364a2.078,2.078,0,0,0,2.03,1.484,1.848,1.848,0,0,0,2-1.9,1.375,1.375,0,0,0-.308-.938,3.532,3.532,0,0,0-1.456-.9c-.658-.28-.938-.406-.938-.826a.642.642,0,0,1,.7-.658.891.891,0,0,1,.812.588Zm3.962.014V-5.81h-1.008v-2.1h-1.008v2.1h-.616v.924h.616V0h1.008V-4.886Zm5.614-.1a2.4,2.4,0,0,0-1.988-.966,2.792,2.792,0,0,0-2.828,3.038A2.813,2.813,0,0,0-101.92.168a2.451,2.451,0,0,0,1.988-.98V0h1.008V-5.81h-1.008Zm-1.876-.07A1.968,1.968,0,0,1-99.876-2.9a1.987,1.987,0,0,1-1.932,2.17,1.943,1.943,0,0,1-1.9-2.184A1.931,1.931,0,0,1-101.808-5.054Zm4.984,8.274h1.12l4.27-9.03h-1.12l-1.89,4.158L-96.5-5.81H-97.65l2.674,5.264Zm10.136-9.03V0h1.008V-5.81Zm-.21-2.2a.717.717,0,0,0,.714.714.717.717,0,0,0,.714-.714.717.717,0,0,0-.714-.714A.717.717,0,0,0-86.9-8.008ZM-83.566,0h1.008V-3.038a2.447,2.447,0,0,1,.42-1.568,1.27,1.27,0,0,1,1.022-.448,1.14,1.14,0,0,1,.952.42A1.708,1.708,0,0,1-79.9-3.57V0h1.008V-3.6a2.591,2.591,0,0,0-.336-1.554,1.971,1.971,0,0,0-1.666-.8,2.05,2.05,0,0,0-1.666.812V-5.81h-1.008Zm11.242-4.984a2.4,2.4,0,0,0-1.988-.966A2.792,2.792,0,0,0-77.14-2.912,2.813,2.813,0,0,0-74.312.168a2.451,2.451,0,0,0,1.988-.98V0h1.008V-10.206h-1.008Zm-1.876-.07A1.968,1.968,0,0,1-72.268-2.9,1.987,1.987,0,0,1-74.2-.728a1.943,1.943,0,0,1-1.9-2.184A1.931,1.931,0,0,1-74.2-5.054ZM-66.486.168a2.98,2.98,0,0,0,3.08-3.052,2.983,2.983,0,0,0-3.08-3.066,2.983,2.983,0,0,0-3.08,3.066A2.98,2.98,0,0,0-66.486.168Zm0-5.222a2.011,2.011,0,0,1,2.044,2.17A2.014,2.014,0,0,1-66.486-.728,2.014,2.014,0,0,1-68.53-2.884,2.019,2.019,0,0,1-66.486-5.054ZM-58.94.168a2.98,2.98,0,0,0,3.08-3.052A2.983,2.983,0,0,0-58.94-5.95a2.983,2.983,0,0,0-3.08,3.066A2.98,2.98,0,0,0-58.94.168Zm0-5.222A2.011,2.011,0,0,1-56.9-2.884,2.014,2.014,0,0,1-58.94-.728a2.014,2.014,0,0,1-2.044-2.156A2.019,2.019,0,0,1-58.94-5.054ZM-54.11,0H-53.1V-3.066a2.507,2.507,0,0,1,.336-1.568A.976.976,0,0,1-51.954-5a1.037,1.037,0,0,1,.588.2l.476-.91a2.129,2.129,0,0,0-.9-.238,1.615,1.615,0,0,0-1.316.77v-.63H-54.11Zm10.29-4.886V-5.81h-1.428V-8.232a1.746,1.746,0,0,1,.126-.84.707.707,0,0,1,.644-.308,1.828,1.828,0,0,1,.658.126v-.98a1.948,1.948,0,0,0-.714-.126,1.808,1.808,0,0,0-1.162.378,2.01,2.01,0,0,0-.56,1.638V-5.81h-.56v.924h.56V0h1.008V-4.886ZM-40,.168a2.98,2.98,0,0,0,3.08-3.052A2.983,2.983,0,0,0-40-5.95a2.983,2.983,0,0,0-3.08,3.066A2.98,2.98,0,0,0-40,.168Zm0-5.222a2.011,2.011,0,0,1,2.044,2.17A2.014,2.014,0,0,1-40-.728a2.014,2.014,0,0,1-2.044-2.156A2.019,2.019,0,0,1-40-5.054ZM-35.168,0h1.008V-3.066a2.507,2.507,0,0,1,.336-1.568A.976.976,0,0,1-33.012-5a1.037,1.037,0,0,1,.588.2l.476-.91a2.129,2.129,0,0,0-.9-.238,1.615,1.615,0,0,0-1.316.77v-.63h-1.008Zm7.826-10.206V0h1.008V-10.206ZM-21.5.168a2.98,2.98,0,0,0,3.08-3.052A2.983,2.983,0,0,0-21.5-5.95a2.983,2.983,0,0,0-3.08,3.066A2.98,2.98,0,0,0-21.5.168Zm0-5.222a2.011,2.011,0,0,1,2.044,2.17A2.014,2.014,0,0,1-21.5-.728a2.014,2.014,0,0,1-2.044-2.156A2.019,2.019,0,0,1-21.5-5.054ZM-16.674,0h1.008V-3.038a2.447,2.447,0,0,1,.42-1.568,1.27,1.27,0,0,1,1.022-.448,1.14,1.14,0,0,1,.952.42,1.708,1.708,0,0,1,.266,1.064V0H-12V-3.6a2.591,2.591,0,0,0-.336-1.554A1.971,1.971,0,0,0-14-5.95a2.05,2.05,0,0,0-1.666.812V-5.81h-1.008ZM-5.432-4.984A2.416,2.416,0,0,0-7.42-5.95a2.865,2.865,0,0,0-1.988.784,3.047,3.047,0,0,0-.84,2.254,3.147,3.147,0,0,0,.84,2.3A2.783,2.783,0,0,0-7.42.168a2.451,2.451,0,0,0,1.988-.98v.84a2.7,2.7,0,0,1-.322,1.484,1.629,1.629,0,0,1-1.54.812,1.8,1.8,0,0,1-1.4-.56A1.829,1.829,0,0,1-9.142.56h-.994A2.618,2.618,0,0,0-9.38,2.436a2.877,2.877,0,0,0,2.072.784A2.827,2.827,0,0,0-4.984,2.142,3.655,3.655,0,0,0-4.424-.14V-5.81H-5.432Zm-1.876-.07a1.863,1.863,0,0,1,1.316.518A2.3,2.3,0,0,1-5.376-2.9a2.355,2.355,0,0,1-.658,1.68,1.72,1.72,0,0,1-1.274.49A1.758,1.758,0,0,1-8.554-1.2a2.24,2.24,0,0,1-.658-1.708,2.212,2.212,0,0,1,.588-1.6A1.8,1.8,0,0,1-7.308-5.054Zm-80.22,22.242a2.467,2.467,0,0,0,2.03.98,2.827,2.827,0,0,0,2.786-3.038,2.877,2.877,0,0,0-2.828-3.08A2.5,2.5,0,0,0-87.528,13V12.19h-1.008v9.03h1.008Zm1.89.084a1.988,1.988,0,0,1-1.946-2.156,2.016,2.016,0,0,1,1.932-2.17,1.993,1.993,0,0,1,1.9,2.184A1.957,1.957,0,0,1-85.638,17.272Zm8.988-1.218a2.315,2.315,0,0,1-.6.8,1.766,1.766,0,0,1-1.19.42A1.861,1.861,0,0,1-80.29,15.3h4.522a3.9,3.9,0,0,0-.546-2.184,2.6,2.6,0,0,0-2.2-1.064,2.817,2.817,0,0,0-2.814,3.08,2.781,2.781,0,0,0,2.87,3.038,2.82,2.82,0,0,0,1.932-.714,3.476,3.476,0,0,0,.714-.938Zm-3.57-1.6a1.766,1.766,0,0,1,1.708-1.512A1.739,1.739,0,0,1-76.8,14.458Zm6.2,3.542h1.008V14.934a2.507,2.507,0,0,1,.336-1.568A.976.976,0,0,1-71.862,13a1.037,1.037,0,0,1,.588.2l.476-.91a2.129,2.129,0,0,0-.9-.238,1.615,1.615,0,0,0-1.316.77v-.63h-1.008Zm4.354-5.81V18h1.008V12.19Zm-.21-2.2a.717.717,0,0,0,.714.714.717.717,0,0,0,.714-.714.717.717,0,0,0-.714-.714A.717.717,0,0,0-69.874,9.992Zm6.048,8.176a2.98,2.98,0,0,0,3.08-3.052,2.983,2.983,0,0,0-3.08-3.066,2.983,2.983,0,0,0-3.08,3.066A2.98,2.98,0,0,0-63.826,18.168Zm0-5.222a2.011,2.011,0,0,1,2.044,2.17,2.014,2.014,0,0,1-2.044,2.156,2.014,2.014,0,0,1-2.044-2.156A2.019,2.019,0,0,1-63.826,12.946Zm9.282.07a2.4,2.4,0,0,0-1.988-.966,2.792,2.792,0,0,0-2.828,3.038,2.813,2.813,0,0,0,2.828,3.08,2.451,2.451,0,0,0,1.988-.98V18h1.008V7.794h-1.008Zm-1.876-.07A1.968,1.968,0,0,1-54.488,15.1a1.987,1.987,0,0,1-1.932,2.17,1.943,1.943,0,0,1-1.9-2.184A1.931,1.931,0,0,1-56.42,12.946Zm8.218.154a1.676,1.676,0,0,0-1.6-1.05,1.562,1.562,0,0,0-1.694,1.624,1.262,1.262,0,0,0,.266.854,3.79,3.79,0,0,0,1.414.854c.546.238.938.42.938.966a.9.9,0,0,1-.952.924A1.315,1.315,0,0,1-51,16.32l-.868.364a2.078,2.078,0,0,0,2.03,1.484,1.848,1.848,0,0,0,2-1.9,1.375,1.375,0,0,0-.308-.938,3.532,3.532,0,0,0-1.456-.9c-.658-.28-.938-.406-.938-.826a.642.642,0,0,1,.7-.658.891.891,0,0,1,.812.588Zm8.106,5.068a2.98,2.98,0,0,0,3.08-3.052A2.983,2.983,0,0,0-40.1,12.05a2.983,2.983,0,0,0-3.08,3.066A2.98,2.98,0,0,0-40.1,18.168Zm0-5.222a2.011,2.011,0,0,1,2.044,2.17A2.014,2.014,0,0,1-40.1,17.272a2.014,2.014,0,0,1-2.044-2.156A2.019,2.019,0,0,1-40.1,12.946Zm7.294.168V12.19H-34.23V9.768a1.746,1.746,0,0,1,.126-.84.707.707,0,0,1,.644-.308,1.828,1.828,0,0,1,.658.126v-.98a1.948,1.948,0,0,0-.714-.126,1.808,1.808,0,0,0-1.162.378,2.01,2.01,0,0,0-.56,1.638V12.19h-.56v.924h.56V18h1.008V13.114Zm6.622,0V12.19h-1.008v-2.1H-28.2v2.1h-.616v.924h.616V18h1.008V13.114Zm1.162-.924V18h1.008V12.19Zm-.21-2.2a.717.717,0,0,0,.714.714.717.717,0,0,0,.714-.714.717.717,0,0,0-.714-.714A.717.717,0,0,0-25.228,9.992ZM-21.9,18h1.008V14.836c0-.7.126-1.89,1.274-1.89,1.064,0,1.05,1.2,1.05,1.61V18h1.008V14.766c0-.7.126-1.82,1.288-1.82.952,0,1.036.868,1.036,1.526V18h1.008V14.318c0-.826-.168-2.268-1.89-2.268a1.939,1.939,0,0,0-1.75.938,1.74,1.74,0,0,0-1.582-.938,1.688,1.688,0,0,0-1.442.756V12.19H-21.9Zm14.112-1.946a2.315,2.315,0,0,1-.6.8,1.766,1.766,0,0,1-1.19.42A1.861,1.861,0,0,1-11.424,15.3H-6.9a3.9,3.9,0,0,0-.546-2.184,2.6,2.6,0,0,0-2.2-1.064,2.817,2.817,0,0,0-2.814,3.08,2.781,2.781,0,0,0,2.87,3.038,2.82,2.82,0,0,0,1.932-.714,3.476,3.476,0,0,0,.714-.938Zm-3.57-1.6a1.766,1.766,0,0,1,1.708-1.512,1.739,1.739,0,0,1,1.708,1.512Zm9.3-.5a1.421,1.421,0,0,1-.336.938.954.954,0,0,1-.686.252.948.948,0,0,1-.686-.252.98.98,0,0,1-.28-.728,1.024,1.024,0,0,1,.686-.98c.336-.154.686-.238,1.008-.35a2.53,2.53,0,0,0,1.078-.7A1.962,1.962,0,0,0-.8,10.762,2.222,2.222,0,0,0-1.414,9.11a2.208,2.208,0,0,0-1.652-.6,2.223,2.223,0,0,0-1.708.644,2.137,2.137,0,0,0-.532,1.512,2.881,2.881,0,0,0,.056.616h1.036a2.131,2.131,0,0,1-.084-.588,1.345,1.345,0,0,1,.364-.938,1.294,1.294,0,0,1,.882-.294,1.221,1.221,0,0,1,.854.294,1.273,1.273,0,0,1,.364.98,1.186,1.186,0,0,1-.9,1.232,11.371,11.371,0,0,0-1.176.392,1.77,1.77,0,0,0-1.176,1.736,1.988,1.988,0,0,0,.56,1.442,1.984,1.984,0,0,0,1.456.56,1.907,1.907,0,0,0,1.442-.56,2.27,2.27,0,0,0,.574-1.582Zm-1.694,3.514a.711.711,0,0,0,.7.7.711.711,0,0,0,.7-.7.711.711,0,0,0-.7-.7A.711.711,0,0,0-3.752,17.468Z" transform="translate(1195.372 583.051)" fill="#fff"/>
    <path id="Path_376" data-name="Path 376" d="M3.178,0H4.214V-4.018l3.094-5.32H6.1L3.7-5.166,1.316-9.338H.112l3.066,5.32ZM9.912.168a2.98,2.98,0,0,0,3.08-3.052A2.983,2.983,0,0,0,9.912-5.95a2.983,2.983,0,0,0-3.08,3.066A2.98,2.98,0,0,0,9.912.168Zm0-5.222a2.011,2.011,0,0,1,2.044,2.17A2.014,2.014,0,0,1,9.912-.728,2.014,2.014,0,0,1,7.868-2.884,2.019,2.019,0,0,1,9.912-5.054ZM15.75-5.81H14.742v3.5a2.309,2.309,0,0,0,.532,1.75,2.428,2.428,0,0,0,1.778.728A2.428,2.428,0,0,0,18.83-.56a2.309,2.309,0,0,0,.532-1.75v-3.5H18.354v3.388a1.978,1.978,0,0,1-.28,1.246,1.234,1.234,0,0,1-1.022.448,1.234,1.234,0,0,1-1.022-.448,1.978,1.978,0,0,1-.28-1.246ZM21.476,0h1.008V-3.066a2.507,2.507,0,0,1,.336-1.568A.976.976,0,0,1,23.632-5a1.037,1.037,0,0,1,.588.2l.476-.91a2.129,2.129,0,0,0-.9-.238,1.615,1.615,0,0,0-1.316.77v-.63H21.476ZM29.3,0H30.31V-3.066a2.507,2.507,0,0,1,.336-1.568A.976.976,0,0,1,31.458-5a1.037,1.037,0,0,1,.588.2l.476-.91a2.129,2.129,0,0,0-.9-.238,1.615,1.615,0,0,0-1.316.77v-.63H29.3Zm8.33-1.946a2.315,2.315,0,0,1-.6.8,1.766,1.766,0,0,1-1.19.42A1.861,1.861,0,0,1,33.992-2.7h4.522a3.9,3.9,0,0,0-.546-2.184,2.6,2.6,0,0,0-2.2-1.064,2.817,2.817,0,0,0-2.814,3.08A2.781,2.781,0,0,0,35.826.168a2.82,2.82,0,0,0,1.932-.714,3.476,3.476,0,0,0,.714-.938Zm-3.57-1.6A1.766,1.766,0,0,1,35.77-5.054a1.739,1.739,0,0,1,1.708,1.512ZM44.716-4.984a2.4,2.4,0,0,0-1.988-.966A2.792,2.792,0,0,0,39.9-2.912,2.813,2.813,0,0,0,42.728.168a2.451,2.451,0,0,0,1.988-.98V3.22h1.008V-5.81H44.716Zm-1.876-.07A1.968,1.968,0,0,1,44.772-2.9,1.987,1.987,0,0,1,42.84-.728a1.943,1.943,0,0,1-1.9-2.184A1.931,1.931,0,0,1,42.84-5.054Zm6.006-.756H47.838v3.5A2.309,2.309,0,0,0,48.37-.56a2.428,2.428,0,0,0,1.778.728A2.428,2.428,0,0,0,51.926-.56a2.309,2.309,0,0,0,.532-1.75v-3.5H51.45v3.388a1.978,1.978,0,0,1-.28,1.246,1.234,1.234,0,0,1-1.022.448,1.234,1.234,0,0,1-1.022-.448,1.978,1.978,0,0,1-.28-1.246ZM58.884-1.946a2.315,2.315,0,0,1-.6.8,1.766,1.766,0,0,1-1.19.42A1.861,1.861,0,0,1,55.244-2.7h4.522a3.9,3.9,0,0,0-.546-2.184,2.6,2.6,0,0,0-2.2-1.064,2.817,2.817,0,0,0-2.814,3.08A2.781,2.781,0,0,0,57.078.168,2.82,2.82,0,0,0,59.01-.546a3.476,3.476,0,0,0,.714-.938Zm-3.57-1.6a1.766,1.766,0,0,1,1.708-1.512A1.739,1.739,0,0,1,58.73-3.542ZM64.736-4.9a1.676,1.676,0,0,0-1.6-1.05,1.562,1.562,0,0,0-1.694,1.624,1.262,1.262,0,0,0,.266.854,3.79,3.79,0,0,0,1.414.854c.546.238.938.42.938.966a.9.9,0,0,1-.952.924,1.315,1.315,0,0,1-1.176-.952l-.868.364A2.078,2.078,0,0,0,63.1.168a1.848,1.848,0,0,0,2-1.9,1.375,1.375,0,0,0-.308-.938,3.532,3.532,0,0,0-1.456-.9c-.658-.28-.938-.406-.938-.826a.642.642,0,0,1,.7-.658.891.891,0,0,1,.812.588Zm3.962.014V-5.81H67.69v-2.1H66.682v2.1h-.616v.924h.616V0H67.69V-4.886ZM73.332,0H74.34V-3.038a2.447,2.447,0,0,1,.42-1.568,1.27,1.27,0,0,1,1.022-.448,1.14,1.14,0,0,1,.952.42A1.708,1.708,0,0,1,77-3.57V0h1.008V-3.6a2.591,2.591,0,0,0-.336-1.554,1.971,1.971,0,0,0-1.666-.8,2.05,2.05,0,0,0-1.666.812v-5.068H73.332ZM84.574-4.984a2.4,2.4,0,0,0-1.988-.966,2.792,2.792,0,0,0-2.828,3.038A2.813,2.813,0,0,0,82.586.168a2.451,2.451,0,0,0,1.988-.98V0h1.008V-5.81H84.574ZM82.7-5.054A1.968,1.968,0,0,1,84.63-2.9,1.987,1.987,0,0,1,82.7-.728a1.943,1.943,0,0,1-1.9-2.184A1.931,1.931,0,0,1,82.7-5.054Zm8.218.154a1.676,1.676,0,0,0-1.6-1.05,1.562,1.562,0,0,0-1.694,1.624,1.262,1.262,0,0,0,.266.854,3.79,3.79,0,0,0,1.414.854c.546.238.938.42.938.966a.9.9,0,0,1-.952.924,1.315,1.315,0,0,1-1.176-.952l-.868.364A2.078,2.078,0,0,0,89.278.168a1.848,1.848,0,0,0,2-1.9,1.375,1.375,0,0,0-.308-.938,3.532,3.532,0,0,0-1.456-.9c-.658-.28-.938-.406-.938-.826a.642.642,0,0,1,.7-.658.891.891,0,0,1,.812.588Zm6.4,4.088a2.467,2.467,0,0,0,2.03.98A2.827,2.827,0,0,0,102.13-2.87,2.877,2.877,0,0,0,99.3-5.95,2.5,2.5,0,0,0,97.314-5v-5.208H96.306V0h1.008Zm1.89.084a1.988,1.988,0,0,1-1.946-2.156,2.016,2.016,0,0,1,1.932-2.17,1.993,1.993,0,0,1,1.9,2.184A1.957,1.957,0,0,1,99.2-.728Zm8.988-1.218a2.315,2.315,0,0,1-.6.8,1.766,1.766,0,0,1-1.19.42A1.861,1.861,0,0,1,104.552-2.7h4.522a3.9,3.9,0,0,0-.546-2.184,2.6,2.6,0,0,0-2.2-1.064,2.817,2.817,0,0,0-2.814,3.08,2.781,2.781,0,0,0,2.87,3.038,2.82,2.82,0,0,0,1.932-.714,3.476,3.476,0,0,0,.714-.938Zm-3.57-1.6a1.766,1.766,0,0,1,1.708-1.512,1.739,1.739,0,0,1,1.708,1.512Zm10.514,1.6a2.315,2.315,0,0,1-.6.8,1.766,1.766,0,0,1-1.19.42A1.861,1.861,0,0,1,111.5-2.7h4.522a3.9,3.9,0,0,0-.546-2.184,2.6,2.6,0,0,0-2.2-1.064,2.817,2.817,0,0,0-2.814,3.08A2.781,2.781,0,0,0,113.33.168a2.82,2.82,0,0,0,1.932-.714,3.476,3.476,0,0,0,.714-.938Zm-3.57-1.6a1.766,1.766,0,0,1,1.708-1.512,1.739,1.739,0,0,1,1.708,1.512ZM117.768,0h1.008V-3.038a2.447,2.447,0,0,1,.42-1.568,1.27,1.27,0,0,1,1.022-.448,1.14,1.14,0,0,1,.952.42,1.708,1.708,0,0,1,.266,1.064V0h1.008V-3.6a2.591,2.591,0,0,0-.336-1.554,1.971,1.971,0,0,0-1.666-.8,2.05,2.05,0,0,0-1.666.812V-5.81h-1.008Zm14.714-4.984a2.4,2.4,0,0,0-1.988-.966,2.792,2.792,0,0,0-2.828,3.038,2.813,2.813,0,0,0,2.828,3.08,2.451,2.451,0,0,0,1.988-.98V0h1.008V-5.81h-1.008Zm-1.876-.07A1.968,1.968,0,0,1,132.538-2.9a1.987,1.987,0,0,1-1.932,2.17,1.943,1.943,0,0,1-1.9-2.184A1.931,1.931,0,0,1,130.606-5.054Zm9.548-.336a3.077,3.077,0,0,0-1.806-.56,3,3,0,0,0-3.108,3.08A2.976,2.976,0,0,0,138.348.168a3.1,3.1,0,0,0,1.848-.6v-1.2a2.477,2.477,0,0,1-1.876.91,2.022,2.022,0,0,1-2.044-2.156,2.022,2.022,0,0,1,2.058-2.17,2.344,2.344,0,0,1,1.82.868Zm6.342,0a3.077,3.077,0,0,0-1.806-.56,3,3,0,0,0-3.108,3.08A2.976,2.976,0,0,0,144.69.168a3.1,3.1,0,0,0,1.848-.6v-1.2a2.477,2.477,0,0,1-1.876.91,2.022,2.022,0,0,1-2.044-2.156,2.022,2.022,0,0,1,2.058-2.17,2.344,2.344,0,0,1,1.82.868Zm6.1,3.444a2.315,2.315,0,0,1-.6.8,1.766,1.766,0,0,1-1.19.42A1.861,1.861,0,0,1,148.96-2.7h4.522a3.9,3.9,0,0,0-.546-2.184,2.6,2.6,0,0,0-2.2-1.064,2.817,2.817,0,0,0-2.814,3.08,2.781,2.781,0,0,0,2.87,3.038,2.82,2.82,0,0,0,1.932-.714,3.476,3.476,0,0,0,.714-.938Zm-3.57-1.6a1.766,1.766,0,0,1,1.708-1.512,1.739,1.739,0,0,1,1.708,1.512Zm7.21,2.73a2.467,2.467,0,0,0,2.03.98,2.827,2.827,0,0,0,2.786-3.038,2.877,2.877,0,0,0-2.828-3.08A2.5,2.5,0,0,0,156.24-5V-5.81h-1.008V3.22h1.008Zm1.89.084a1.988,1.988,0,0,1-1.946-2.156,2.016,2.016,0,0,1,1.932-2.17,1.993,1.993,0,0,1,1.9,2.184A1.957,1.957,0,0,1,158.13-.728Zm6.72-4.158V-5.81h-1.008v-2.1h-1.008v2.1h-.616v.924h.616V0h1.008V-4.886Zm5.474,2.94a2.315,2.315,0,0,1-.6.8,1.766,1.766,0,0,1-1.19.42A1.861,1.861,0,0,1,166.684-2.7h4.522a3.9,3.9,0,0,0-.546-2.184,2.6,2.6,0,0,0-2.2-1.064,2.817,2.817,0,0,0-2.814,3.08,2.781,2.781,0,0,0,2.87,3.038,2.82,2.82,0,0,0,1.932-.714,3.476,3.476,0,0,0,.714-.938Zm-3.57-1.6a1.766,1.766,0,0,1,1.708-1.512,1.739,1.739,0,0,1,1.708,1.512Zm10.654-1.442a2.4,2.4,0,0,0-1.988-.966,2.792,2.792,0,0,0-2.828,3.038A2.813,2.813,0,0,0,175.42.168a2.451,2.451,0,0,0,1.988-.98V0h1.008V-10.206h-1.008Zm-1.876-.07A1.968,1.968,0,0,1,177.464-2.9a1.987,1.987,0,0,1-1.932,2.17,1.943,1.943,0,0,1-1.9-2.184A1.931,1.931,0,0,1,175.532-5.054Z" transform="translate(943.607 746.626)" fill="#fff"/>
    <line id="Line_6" data-name="Line 6" x2="53.141" transform="translate(966.441 929.829)" fill="none" stroke="#fff" stroke-width="1.5" stroke-dasharray="5"/>
    <g id="bxs-file-doc" transform="translate(944.022 850.844)">
      <path id="Path_331" data-name="Path 331" d="M12.071,14.552c-.544,0-.862.518-.862,1.211s.327,1.191.867,1.191.857-.519.857-1.212C12.933,15.1,12.626,14.552,12.071,14.552Z" transform="translate(-4.849 -3.478)" fill="#fff"/>
      <path id="Path_332" data-name="Path 332" d="M12.822,2H5.764A1.765,1.765,0,0,0,4,3.764V17.88a1.765,1.765,0,0,0,1.764,1.764H16.351a1.765,1.765,0,0,0,1.764-1.764V7.293ZM8.548,15.634a2.558,2.558,0,0,1-1.644.46,6.975,6.975,0,0,1-.916-.053v-3.5a7.2,7.2,0,0,1,1.09-.073,2.291,2.291,0,0,1,1.46.381,1.577,1.577,0,0,1,.6,1.343A1.81,1.81,0,0,1,8.548,15.634Zm2.638.482A1.663,1.663,0,0,1,9.509,14.3a1.725,1.725,0,0,1,1.735-1.867,1.662,1.662,0,0,1,1.693,1.8A1.7,1.7,0,0,1,11.186,16.116Zm4.107-.672a2.047,2.047,0,0,0,.672-.116l.122.629a2.3,2.3,0,0,1-.915.154A1.7,1.7,0,0,1,13.3,14.326a1.817,1.817,0,0,1,1.947-1.893,2.1,2.1,0,0,1,.878.159l-.164.64a1.746,1.746,0,0,0-.678-.132,1.073,1.073,0,0,0-1.138,1.18A1.065,1.065,0,0,0,15.292,15.443Zm-2.47-7.268H11.94V3.764l4.411,4.411Z" transform="translate(-4 -2)" fill="#fff"/>
      <path id="Path_333" data-name="Path 333" d="M7.535,14.563a1.674,1.674,0,0,0-.364.032v2.333a1.479,1.479,0,0,0,.28.016A1.1,1.1,0,0,0,8.657,15.7,1.023,1.023,0,0,0,7.535,14.563Z" transform="translate(-4.373 -3.48)" fill="#fff"/>
    </g>
    <g id="bxs-file-doc-2" data-name="bxs-file-doc" transform="translate(944.022 903.985)">
      <path id="Path_331-2" data-name="Path 331" d="M12.071,14.552c-.544,0-.862.518-.862,1.211s.327,1.191.867,1.191.857-.519.857-1.212C12.933,15.1,12.626,14.552,12.071,14.552Z" transform="translate(-4.849 -3.478)" fill="#fff"/>
      <path id="Path_332-2" data-name="Path 332" d="M12.822,2H5.764A1.765,1.765,0,0,0,4,3.764V17.88a1.765,1.765,0,0,0,1.764,1.764H16.351a1.765,1.765,0,0,0,1.764-1.764V7.293ZM8.548,15.634a2.558,2.558,0,0,1-1.644.46,6.975,6.975,0,0,1-.916-.053v-3.5a7.2,7.2,0,0,1,1.09-.073,2.291,2.291,0,0,1,1.46.381,1.577,1.577,0,0,1,.6,1.343A1.81,1.81,0,0,1,8.548,15.634Zm2.638.482A1.663,1.663,0,0,1,9.509,14.3a1.725,1.725,0,0,1,1.735-1.867,1.662,1.662,0,0,1,1.693,1.8A1.7,1.7,0,0,1,11.186,16.116Zm4.107-.672a2.047,2.047,0,0,0,.672-.116l.122.629a2.3,2.3,0,0,1-.915.154A1.7,1.7,0,0,1,13.3,14.326a1.817,1.817,0,0,1,1.947-1.893,2.1,2.1,0,0,1,.878.159l-.164.64a1.746,1.746,0,0,0-.678-.132,1.073,1.073,0,0,0-1.138,1.18A1.065,1.065,0,0,0,15.292,15.443Zm-2.47-7.268H11.94V3.764l4.411,4.411Z" transform="translate(-4 -2)" fill="#fff"/>
      <path id="Path_333-2" data-name="Path 333" d="M7.535,14.563a1.674,1.674,0,0,0-.364.032v2.333a1.479,1.479,0,0,0,.28.016A1.1,1.1,0,0,0,8.657,15.7,1.023,1.023,0,0,0,7.535,14.563Z" transform="translate(-4.373 -3.48)" fill="#fff"/>
    </g>
    <line id="Line_11" data-name="Line 11" x2="123.719" transform="translate(966.441 876.688)" fill="none" stroke="#fff" stroke-width="1.5" stroke-dasharray="5"/>
    <g id="Path_379" data-name="Path 379" transform="translate(927 491)" fill="none">
      <path d="M61,0H224.633a61,61,0,0,1,61,61V468.75a61,61,0,0,1-61,61H61a61,61,0,0,1-61-61V61A61,61,0,0,1,61,0Z" stroke="none"/>
      <path d="M 61 4 C 53.30329895019531 4 45.83894348144531 5.5064697265625 38.81430053710938 8.47772216796875 C 35.43765258789063 9.90594482421875 32.18057250976563 11.67376708984375 29.13357543945313 13.73236083984375 C 26.11444091796875 15.77197265625 23.27529907226563 18.11456298828125 20.6949462890625 20.69491577148438 C 18.11459350585938 23.2752685546875 15.77200317382813 26.11441040039063 13.73236083984375 29.13357543945313 C 11.67379760742188 32.18057250976563 9.90594482421875 35.4376220703125 8.47772216796875 38.81427001953125 C 5.506500244140625 45.83892822265625 4 53.30328369140625 4 61 L 4 468.7501220703125 C 4 476.4468383789063 5.506500244140625 483.9111938476563 8.47772216796875 490.9358520507813 C 9.90594482421875 494.3125 11.67379760742188 497.5695495605469 13.73236083984375 500.6165771484375 C 15.77200317382813 503.6357116699219 18.11459350585938 506.474853515625 20.6949462890625 509.0552062988281 C 23.27529907226563 511.6355590820313 26.11444091796875 513.9781494140625 29.13357543945313 516.0177612304688 C 32.18057250976563 518.0763549804688 35.43765258789063 519.8441772460938 38.81430053710938 521.2723999023438 C 45.83894348144531 524.24365234375 53.30329895019531 525.7501220703125 61 525.7501220703125 L 224.63330078125 525.7501220703125 C 232.3300018310547 525.7501220703125 239.7943725585938 524.24365234375 246.8190002441406 521.2723999023438 C 250.1956481933594 519.8441772460938 253.4527282714844 518.0763549804688 256.4997253417969 516.0177612304688 C 259.5188598632813 513.9781494140625 262.3580017089844 511.6355590820313 264.9383544921875 509.0552062988281 C 267.5187377929688 506.474853515625 269.8612976074219 503.6357116699219 271.9009399414063 500.6165771484375 C 273.9595031738281 497.5695495605469 275.7273559570313 494.3125 277.1555786132813 490.9358520507813 C 280.1268005371094 483.9111938476563 281.63330078125 476.4468383789063 281.63330078125 468.7501220703125 L 281.63330078125 61 C 281.63330078125 53.30328369140625 280.1268005371094 45.83892822265625 277.1555786132813 38.81427001953125 C 275.7273559570313 35.4376220703125 273.9595031738281 32.18057250976563 271.9009399414063 29.13357543945313 C 269.8612976074219 26.11441040039063 267.5187377929688 23.2752685546875 264.9383544921875 20.69491577148438 C 262.3580017089844 18.11456298828125 259.5188598632813 15.77197265625 256.4997253417969 13.73236083984375 C 253.4527282714844 11.67376708984375 250.1956481933594 9.90594482421875 246.8190002441406 8.47772216796875 C 239.7943725585938 5.5064697265625 232.3300018310547 4 224.63330078125 4 L 61 4 M 61 0 L 224.63330078125 0 C 258.3226623535156 0 285.63330078125 27.31063842773438 285.63330078125 61 L 285.63330078125 468.7501220703125 C 285.63330078125 502.4394836425781 258.3226623535156 529.7501220703125 224.63330078125 529.7501220703125 L 61 529.7501220703125 C 27.31063842773438 529.7501220703125 0 502.4394836425781 0 468.7501220703125 L 0 61 C 0 27.31063842773438 27.31063842773438 0 61 0 Z" stroke="none" fill="#005182"/>
    </g>
  </g>
</svg>
