<svg xmlns="http://www.w3.org/2000/svg" viewBox="0 0 324.48 339.69">
  <defs>
    <style>
      .cls-1 {
        opacity: 0.43;
      }

      .cls-2 {
        fill: none;
        stroke: #ff860b;
      }
    </style>
  </defs>
  <g id="Group_3" data-name="Group 3" transform="translate(-359 -314)">
    <g id="Group_1" data-name="Group 1" class="cls-1" transform="translate(130 -22.461)">
      <line id="Line_1" data-name="Line 1" class="cls-2" y2="339.69" transform="translate(252 336.461)"/>
      <line id="Line_1-2" data-name="Line 1" class="cls-2" y2="339.69" transform="translate(272 336.461)"/>
      <line id="Line_1-3" data-name="Line 1" class="cls-2" y2="339.69" transform="translate(292 336.461)"/>
      <line id="Line_1-4" data-name="Line 1" class="cls-2" y2="339.69" transform="translate(312 336.461)"/>
      <line id="Line_1-5" data-name="Line 1" class="cls-2" y2="339.69" transform="translate(332 336.461)"/>
      <line id="Line_1-6" data-name="Line 1" class="cls-2" y2="339.69" transform="translate(352 336.461)"/>
      <line id="Line_1-7" data-name="Line 1" class="cls-2" y2="339.69" transform="translate(372 336.461)"/>
      <line id="Line_1-8" data-name="Line 1" class="cls-2" y2="339.69" transform="translate(392 336.461)"/>
      <line id="Line_1-9" data-name="Line 1" class="cls-2" y2="339.69" transform="translate(412 336.461)"/>
      <line id="Line_1-10" data-name="Line 1" class="cls-2" y2="339.69" transform="translate(432 336.461)"/>
      <line id="Line_1-11" data-name="Line 1" class="cls-2" y2="339.69" transform="translate(452 336.461)"/>
      <line id="Line_1-12" data-name="Line 1" class="cls-2" y2="339.69" transform="translate(472 336.461)"/>
      <line id="Line_1-13" data-name="Line 1" class="cls-2" y2="339.69" transform="translate(492 336.461)"/>
      <line id="Line_1-14" data-name="Line 1" class="cls-2" y2="339.69" transform="translate(512 336.461)"/>
      <line id="Line_1-15" data-name="Line 1" class="cls-2" y2="339.69" transform="translate(532 336.461)"/>
      <line id="Line_1-16" data-name="Line 1" class="cls-2" y2="339.69" transform="translate(252 336.461)"/>
      <line id="Line_1-17" data-name="Line 1" class="cls-2" y2="339.69" transform="translate(272 336.461)"/>
      <line id="Line_1-18" data-name="Line 1" class="cls-2" y2="339.69" transform="translate(292 336.461)"/>
      <line id="Line_1-19" data-name="Line 1" class="cls-2" y2="339.69" transform="translate(312 336.461)"/>
      <line id="Line_1-20" data-name="Line 1" class="cls-2" y2="339.69" transform="translate(332 336.461)"/>
      <line id="Line_1-21" data-name="Line 1" class="cls-2" y2="339.69" transform="translate(352 336.461)"/>
      <line id="Line_1-22" data-name="Line 1" class="cls-2" y2="339.69" transform="translate(372 336.461)"/>
      <line id="Line_1-23" data-name="Line 1" class="cls-2" y2="339.69" transform="translate(392 336.461)"/>
      <line id="Line_1-24" data-name="Line 1" class="cls-2" y2="339.69" transform="translate(412 336.461)"/>
      <line id="Line_1-25" data-name="Line 1" class="cls-2" y2="339.69" transform="translate(432 336.461)"/>
      <line id="Line_1-26" data-name="Line 1" class="cls-2" y2="339.69" transform="translate(452 336.461)"/>
      <line id="Line_1-27" data-name="Line 1" class="cls-2" y2="339.69" transform="translate(472 336.461)"/>
      <line id="Line_1-28" data-name="Line 1" class="cls-2" y2="339.69" transform="translate(492 336.461)"/>
      <line id="Line_1-29" data-name="Line 1" class="cls-2" y2="339.69" transform="translate(512 336.461)"/>
      <line id="Line_1-30" data-name="Line 1" class="cls-2" y2="339.69" transform="translate(532 336.461)"/>
    </g>
    <g id="Group_2" data-name="Group 2" class="cls-1" transform="translate(1019.941 92) rotate(90)">
      <line id="Line_1-31" data-name="Line 1" class="cls-2" y2="324.48" transform="translate(252 336.461)"/>
      <line id="Line_1-32" data-name="Line 1" class="cls-2" y2="324.48" transform="translate(272 336.461)"/>
      <line id="Line_1-33" data-name="Line 1" class="cls-2" y2="324.48" transform="translate(292 336.461)"/>
      <line id="Line_1-34" data-name="Line 1" class="cls-2" y2="324.48" transform="translate(312 336.461)"/>
      <line id="Line_1-35" data-name="Line 1" class="cls-2" y2="324.48" transform="translate(332 336.461)"/>
      <line id="Line_1-36" data-name="Line 1" class="cls-2" y2="324.48" transform="translate(352 336.461)"/>
      <line id="Line_1-37" data-name="Line 1" class="cls-2" y2="324.48" transform="translate(372 336.461)"/>
      <line id="Line_1-38" data-name="Line 1" class="cls-2" y2="324.48" transform="translate(392 336.461)"/>
      <line id="Line_1-39" data-name="Line 1" class="cls-2" y2="324.48" transform="translate(412 336.461)"/>
      <line id="Line_1-40" data-name="Line 1" class="cls-2" y2="324.48" transform="translate(432 336.461)"/>
      <line id="Line_1-41" data-name="Line 1" class="cls-2" y2="324.48" transform="translate(452 336.461)"/>
      <line id="Line_1-42" data-name="Line 1" class="cls-2" y2="324.48" transform="translate(472 336.461)"/>
      <line id="Line_1-43" data-name="Line 1" class="cls-2" y2="324.48" transform="translate(492 336.461)"/>
      <line id="Line_1-44" data-name="Line 1" class="cls-2" y2="324.48" transform="translate(512 336.461)"/>
      <line id="Line_1-45" data-name="Line 1" class="cls-2" y2="324.48" transform="translate(532 336.461)"/>
      <line id="Line_1-46" data-name="Line 1" class="cls-2" y2="324.48" transform="translate(252 336.461)"/>
      <line id="Line_1-47" data-name="Line 1" class="cls-2" y2="324.48" transform="translate(272 336.461)"/>
      <line id="Line_1-48" data-name="Line 1" class="cls-2" y2="324.48" transform="translate(292 336.461)"/>
      <line id="Line_1-49" data-name="Line 1" class="cls-2" y2="324.48" transform="translate(312 336.461)"/>
      <line id="Line_1-50" data-name="Line 1" class="cls-2" y2="324.48" transform="translate(332 336.461)"/>
      <line id="Line_1-51" data-name="Line 1" class="cls-2" y2="324.48" transform="translate(352 336.461)"/>
      <line id="Line_1-52" data-name="Line 1" class="cls-2" y2="324.48" transform="translate(372 336.461)"/>
      <line id="Line_1-53" data-name="Line 1" class="cls-2" y2="324.48" transform="translate(392 336.461)"/>
      <line id="Line_1-54" data-name="Line 1" class="cls-2" y2="324.48" transform="translate(412 336.461)"/>
      <line id="Line_1-55" data-name="Line 1" class="cls-2" y2="324.48" transform="translate(432 336.461)"/>
      <line id="Line_1-56" data-name="Line 1" class="cls-2" y2="324.48" transform="translate(452 336.461)"/>
      <line id="Line_1-57" data-name="Line 1" class="cls-2" y2="324.48" transform="translate(472 336.461)"/>
      <line id="Line_1-58" data-name="Line 1" class="cls-2" y2="324.48" transform="translate(492 336.461)"/>
      <line id="Line_1-59" data-name="Line 1" class="cls-2" y2="324.48" transform="translate(512 336.461)"/>
      <line id="Line_1-60" data-name="Line 1" class="cls-2" y2="324.48" transform="translate(532 336.461)"/>
    </g>
  </g>
</svg>
